<?xml version="1.0" encoding="UTF-8" standalone="no"?><!DOCTYPE svg PUBLIC "-//W3C//DTD SVG 1.1//EN" "http://www.w3.org/Graphics/SVG/1.1/DTD/svg11.dtd"><svg width="100%" height="100%" viewBox="0 0 44 48" version="1.1" xmlns="http://www.w3.org/2000/svg" xmlns:xlink="http://www.w3.org/1999/xlink" xml:space="preserve" xmlns:serif="http://www.serif.com/" style="fill-rule:evenodd;clip-rule:evenodd;stroke-linejoin:round;stroke-miterlimit:2;"><g><path d="M7.116,16.429C9.013,16.429 10.498,17.951 10.498,19.802L10.498,23.464C10.498,24.04 10.993,24.534 11.571,24.534L13.551,24.534L13.551,15.03C13.551,11.739 16.191,9.105 19.491,9.105C22.791,9.105 25.472,11.78 25.472,15.03L25.472,32.968L27.452,32.968C28.029,32.968 28.524,32.474 28.524,31.898L28.524,28.236C28.524,26.344 30.05,24.863 31.906,24.863C33.804,24.863 35.289,26.385 35.289,28.236L35.289,31.898C35.289,36.218 31.741,39.756 27.41,39.756L25.43,39.756L25.43,47.45L13.592,47.45L13.592,31.322L11.612,31.322C7.24,31.322 3.692,27.784 3.692,23.464L3.692,19.802C3.692,17.951 5.219,16.429 7.116,16.429Z" style="fill:rgb(21,195,154);fill-rule:nonzero;"/><path d="M37.5,12.5C40.814,12.5 43.5,9.814 43.5,6.5C43.5,3.186 40.814,0.5 37.5,0.5C34.186,0.5 31.5,3.186 31.5,6.5C31.5,9.814 34.186,12.5 37.5,12.5Z" style="fill:rgb(248,228,133);fill-rule:nonzero;"/><path d="M37.5,13C41.09,13 44,10.09 44,6.5C44,2.91 41.09,0 37.5,0C33.91,0 31,2.91 31,6.5C31,10.09 33.91,13 37.5,13ZM37.5,12C34.462,12 32,9.538 32,6.5C32,3.462 34.462,1 37.5,1C40.538,1 43,3.462 43,6.5C43,9.538 40.538,12 37.5,12Z" style="fill:rgb(14,16,26);"/><path d="M13.092,47L0,47L0,48L38.81,48L38.81,47L25.93,47L25.93,40.256C25.93,40.256 27.41,40.256 27.41,40.256C32.017,40.256 35.789,36.493 35.789,31.898C35.789,31.898 35.789,28.236 35.789,28.236C35.789,26.111 34.085,24.363 31.906,24.363C29.775,24.363 28.024,26.064 28.024,28.236L28.024,31.898C28.024,32.205 27.759,32.468 27.452,32.468L25.972,32.468C25.972,32.468 25.972,15.03 25.972,15.03C25.972,11.507 23.068,8.605 19.491,8.605C15.913,8.605 13.051,11.461 13.051,15.03L13.051,24.034C13.051,24.034 11.571,24.034 11.571,24.034C11.263,24.034 10.998,23.771 10.998,23.464L10.998,19.802C10.998,17.677 9.294,15.929 7.116,15.929C4.939,15.929 3.192,17.679 3.192,19.802C3.192,19.802 3.192,23.464 3.192,23.464C3.192,28.058 6.963,31.822 11.612,31.822L13.092,31.822L13.092,47ZM7.116,16.929C8.733,16.929 9.998,18.225 9.998,19.802C9.998,19.802 9.998,23.464 9.998,23.464C9.998,24.309 10.724,25.034 11.571,25.034C11.571,25.034 14.051,25.034 14.051,25.034L14.051,15.03C14.051,12.016 16.469,9.605 19.491,9.605C22.513,9.605 24.972,12.053 24.972,15.03L24.972,33.468L27.452,33.468C28.299,33.468 29.024,32.743 29.024,31.898C29.024,31.898 29.024,28.236 29.024,28.236C29.024,26.624 30.325,25.363 31.906,25.363C33.523,25.363 34.789,26.659 34.789,28.236L34.789,31.898C34.789,35.943 31.466,39.256 27.41,39.256C27.41,39.256 24.93,39.256 24.93,39.256L24.93,46.95C24.93,46.95 14.092,46.95 14.092,46.95C14.092,46.95 14.092,30.822 14.092,30.822L11.612,30.822C7.517,30.822 4.192,27.51 4.192,23.464L4.192,19.802C4.192,18.223 5.498,16.929 7.116,16.929Z" style="fill:rgb(14,16,26);"/></g></svg>