<svg width="47" height="47" viewBox="0 0 47 47" fill="none" xmlns="http://www.w3.org/2000/svg">
<rect x="0.5" y="4.875" width="37.8125" height="41.278" rx="5.5" fill="white" stroke="#6D758D" stroke-linecap="round"/>
<path d="M7.57318 12.4708H12.8916" stroke="#6D758D" stroke-linecap="round"/>
<path d="M7.57318 19.6671H13.7264" stroke="#6D758D" stroke-linecap="round"/>
<path d="M7.57318 25.9638H17.1669" stroke="#6D758D" stroke-linecap="round"/>
<path fill-rule="evenodd" clip-rule="evenodd" d="M32.5537 10.3673C28.6877 10.3673 25.5537 13.5013 25.5537 17.3673V23.9583C25.5537 27.8243 28.6877 30.9583 32.5537 30.9583H33.8632C37.7292 30.9583 40.8632 27.8243 40.8632 23.9583V17.3673C40.8632 13.5013 37.7292 10.3673 33.8632 10.3673H32.5537ZM32.3538 13.0917C30.1446 13.0917 28.3538 14.8826 28.3538 17.0917V22.1507C28.3538 24.3598 30.1446 26.1507 32.3538 26.1507H34.0631C36.2723 26.1507 38.0631 24.3598 38.0631 22.1507V17.0917C38.0631 14.8826 36.2722 13.0917 34.0631 13.0917H32.3538Z" fill="#B5DDE9"/>
<path d="M26.0537 17.3673C26.0537 13.7775 28.9639 10.8673 32.5537 10.8673V9.86731C28.4116 9.86731 25.0537 13.2252 25.0537 17.3673H26.0537ZM26.0537 23.9583V17.3673H25.0537V23.9583H26.0537ZM32.5537 30.4583C28.9639 30.4583 26.0537 27.5482 26.0537 23.9583H25.0537C25.0537 28.1005 28.4116 31.4583 32.5537 31.4583V30.4583ZM33.8632 30.4583H32.5537V31.4583H33.8632V30.4583ZM40.3632 23.9583C40.3632 27.5482 37.453 30.4583 33.8632 30.4583V31.4583C38.0053 31.4583 41.3632 28.1005 41.3632 23.9583H40.3632ZM40.3632 17.3673V23.9583H41.3632V17.3673H40.3632ZM33.8632 10.8673C37.453 10.8673 40.3632 13.7775 40.3632 17.3673H41.3632C41.3632 13.2252 38.0053 9.86731 33.8632 9.86731V10.8673ZM32.5537 10.8673H33.8632V9.86731H32.5537V10.8673ZM28.8538 17.0917C28.8538 15.1587 30.4208 13.5917 32.3538 13.5917V12.5917C29.8685 12.5917 27.8538 14.6065 27.8538 17.0917H28.8538ZM28.8538 22.1507V17.0917H27.8538V22.1507H28.8538ZM32.3538 25.6507C30.4208 25.6507 28.8538 24.0837 28.8538 22.1507H27.8538C27.8538 24.636 29.8685 26.6507 32.3538 26.6507V25.6507ZM34.0631 25.6507H32.3538V26.6507H34.0631V25.6507ZM37.5631 22.1507C37.5631 24.0837 35.9961 25.6507 34.0631 25.6507V26.6507C36.5484 26.6507 38.5631 24.636 38.5631 22.1507H37.5631ZM37.5631 17.0917V22.1507H38.5631V17.0917H37.5631ZM34.0631 13.5917C35.9961 13.5917 37.5631 15.1587 37.5631 17.0917H38.5631C38.5631 14.6065 36.5484 12.5917 34.0631 12.5917V13.5917ZM32.3538 13.5917H34.0631V12.5917H32.3538V13.5917Z" fill="#6D758D"/>
<rect x="19.9169" y="21.1628" width="26.5831" height="24.9902" rx="4.5" fill="url(#paint0_linear)" stroke="#6D758D" stroke-linecap="round"/>
<path fill-rule="evenodd" clip-rule="evenodd" d="M34.5043 35.6134C35.4747 35.1349 36.1424 34.1356 36.1424 32.9804C36.1424 31.3601 34.8288 30.0465 33.2085 30.0465C31.5881 30.0465 30.2745 31.3601 30.2745 32.9804C30.2745 34.1356 30.9422 35.1349 31.9126 35.6134V38.9216C31.9126 39.6372 32.4928 40.2174 33.2085 40.2174C33.9241 40.2174 34.5043 39.6372 34.5043 38.9216V35.6134Z" fill="white"/>
<path d="M34.5043 35.6134L34.2831 35.165L34.0043 35.3025V35.6134H34.5043ZM31.9126 35.6134H32.4126V35.3025L32.1338 35.165L31.9126 35.6134ZM35.6424 32.9804C35.6424 33.938 35.0894 34.7674 34.2831 35.165L34.7254 36.0618C35.86 35.5024 36.6424 34.3332 36.6424 32.9804H35.6424ZM33.2085 30.5465C34.5527 30.5465 35.6424 31.6362 35.6424 32.9804H36.6424C36.6424 31.0839 35.1049 29.5465 33.2085 29.5465V30.5465ZM30.7745 32.9804C30.7745 31.6362 31.8642 30.5465 33.2085 30.5465V29.5465C31.312 29.5465 29.7745 31.0839 29.7745 32.9804H30.7745ZM32.1338 35.165C31.3275 34.7674 30.7745 33.938 30.7745 32.9804H29.7745C29.7745 34.3332 30.5569 35.5024 31.6915 36.0618L32.1338 35.165ZM32.4126 38.9216V35.6134H31.4126V38.9216H32.4126ZM33.2085 39.7174C32.7689 39.7174 32.4126 39.3611 32.4126 38.9216H31.4126C31.4126 39.9134 32.2167 40.7174 33.2085 40.7174V39.7174ZM34.0043 38.9216C34.0043 39.3611 33.648 39.7174 33.2085 39.7174V40.7174C34.2003 40.7174 35.0043 39.9134 35.0043 38.9216H34.0043ZM34.0043 35.6134V38.9216H35.0043V35.6134H34.0043Z" fill="#6D758D"/>
<defs>
<linearGradient id="paint0_linear" x1="47" y1="20.6627" x2="25.4676" y2="41.2335" gradientUnits="userSpaceOnUse">
<stop offset="0.0350108" stop-color="#B5DDE9"/>
<stop offset="1" stop-color="#D1CEF4"/>
</linearGradient>
</defs>
</svg>
