<svg width="84" height="22" viewBox="0 0 84 22" fill="none" xmlns="http://www.w3.org/2000/svg">
  <path fill-rule="evenodd" clip-rule="evenodd"
    d="M25.3804 15.7784C25.0734 15.6611 24.8726 15.4138 24.8726 15.0841C24.8726 14.6843 25.203 14.355 25.6046 14.355C25.7227 14.355 25.8169 14.3784 25.8996 14.4137C26.4193 14.6491 26.974 14.7901 27.6472 14.7901C28.875 14.7901 29.4536 14.2021 29.4536 13.0723V12.7664C28.9219 13.402 28.3438 13.7899 27.3876 13.7899C25.9116 13.7899 24.5771 12.7193 24.5771 10.8485V10.8251C24.5771 8.94251 25.935 7.88372 27.3876 7.88372C28.3673 7.88372 28.9458 8.29542 29.4297 8.82482V8.81293C29.4297 8.33069 29.8313 7.93088 30.3271 7.93088C30.823 7.93088 31.2241 8.33069 31.2241 8.82482V12.8841C31.2241 14.0139 30.953 14.8373 30.4214 15.3667C29.8313 15.9551 28.9219 16.2139 27.6945 16.2139C26.8559 16.2139 26.1239 16.0728 25.3804 15.7784ZM29.4536 10.8485V10.8251C29.4536 9.96604 28.7804 9.36612 27.9068 9.36612C27.0333 9.36612 26.372 9.96604 26.372 10.8251V10.8485C26.372 11.7191 27.0333 12.3075 27.9068 12.3075C28.7804 12.3075 29.4536 11.7076 29.4536 10.8485Z"
    fill="#4C4C4C" />
  <path fill-rule="evenodd" clip-rule="evenodd"
    d="M32.2401 8.82483C32.2401 8.33069 32.6413 7.93088 33.1375 7.93088C33.6334 7.93088 34.0346 8.33069 34.0346 8.82483V9.10694C34.2946 8.49554 34.7192 7.93088 35.2509 7.93088C35.806 7.93088 36.1244 8.29543 36.1244 8.80103C36.1244 9.2718 35.8175 9.55434 35.4517 9.63677C34.5423 9.84878 34.0346 10.5426 34.0346 11.8134V13.484C34.0346 13.9782 33.6334 14.3784 33.1375 14.3784C32.6413 14.3784 32.2401 13.9782 32.2401 13.484V8.82483Z"
    fill="#4C4C4C" />
  <path fill-rule="evenodd" clip-rule="evenodd"
    d="M35.9121 12.4958V12.4724C35.9121 11.0958 36.9626 10.4602 38.4625 10.4602C39.0998 10.4602 39.5603 10.566 40.0092 10.7189V10.6131C40.0092 9.87215 39.5484 9.46002 38.6513 9.46002C38.1555 9.46002 37.7539 9.53097 37.4116 9.63677C37.3054 9.67203 37.2346 9.68393 37.1519 9.68393C36.7388 9.68393 36.408 9.36612 36.408 8.95399C36.408 8.6366 36.6083 8.36596 36.8923 8.25974C37.4589 8.04815 38.0728 7.93088 38.911 7.93088C39.8907 7.93088 40.5993 8.18963 41.0478 8.6366C41.5202 9.10694 41.7329 9.80162 41.7329 10.6488V13.5193C41.7329 14.002 41.3432 14.3784 40.8589 14.3784C40.3396 14.3784 39.9973 14.0139 39.9973 13.637V13.6251C39.5603 14.1078 38.9583 14.4251 38.0843 14.4251C36.8923 14.4251 35.9121 13.7432 35.9121 12.4958ZM40.0327 12.0841V11.7663C39.7257 11.6252 39.3245 11.5309 38.8871 11.5309C38.1197 11.5309 37.6478 11.8368 37.6478 12.4019V12.4252C37.6478 12.9079 38.0494 13.19 38.6275 13.19C39.4661 13.19 40.0327 12.7312 40.0327 12.0841Z"
    fill="#4C4C4C" />
  <path fill-rule="evenodd" clip-rule="evenodd"
    d="M42.6896 8.82482C42.6896 8.33069 43.0908 7.93088 43.587 7.93088C44.0829 7.93088 44.4845 8.33069 44.4845 8.82482V8.89578C44.8972 8.36595 45.4407 7.88372 46.3497 7.88372C47.1759 7.88372 47.8018 8.24826 48.1322 8.88388C48.6873 8.23679 49.3485 7.88372 50.2101 7.88372C51.5446 7.88372 52.3474 8.68376 52.3474 10.2019V13.484C52.3474 13.9782 51.9458 14.3784 51.4499 14.3784C50.9541 14.3784 50.5525 13.9782 50.5525 13.484V10.7899C50.5525 9.94268 50.1748 9.50718 49.502 9.50718C48.8288 9.50718 48.4157 9.94268 48.4157 10.7899V13.484C48.4157 13.9782 48.0145 14.3784 47.5183 14.3784C47.0224 14.3784 46.6208 13.9782 46.6208 13.484V10.7899C46.6208 9.94268 46.2435 9.50718 45.5703 9.50718C44.8972 9.50718 44.4845 9.94268 44.4845 10.7899V13.484C44.4845 13.9782 44.0829 14.3784 43.587 14.3784C43.0908 14.3784 42.6896 13.9782 42.6896 13.484V8.82482Z"
    fill="#4C4C4C" />
  <path fill-rule="evenodd" clip-rule="evenodd"
    d="M53.316 8.82482C53.316 8.33069 53.7172 7.93088 54.2134 7.93088C54.7093 7.93088 55.1109 8.33069 55.1109 8.82482V8.89578C55.5236 8.36595 56.0671 7.88372 56.9761 7.88372C57.8023 7.88372 58.4282 8.24826 58.7586 8.88388C59.3137 8.23679 59.9749 7.88372 60.8366 7.88372C62.171 7.88372 62.9738 8.68376 62.9738 10.2019V13.484C62.9738 13.9782 62.5726 14.3784 62.0763 14.3784C61.5805 14.3784 61.1789 13.9782 61.1789 13.484V10.7899C61.1789 9.94268 60.8012 9.50718 60.1284 9.50718C59.4552 9.50718 59.0421 9.94268 59.0421 10.7899V13.484C59.0421 13.9782 58.6409 14.3784 58.1447 14.3784C57.6488 14.3784 57.2477 13.9782 57.2477 13.484V10.7899C57.2477 9.94268 56.8699 9.50718 56.1968 9.50718C55.5236 9.50718 55.1109 9.94268 55.1109 10.7899V13.484C55.1109 13.9782 54.7093 14.3784 54.2134 14.3784C53.7172 14.3784 53.316 13.9782 53.316 13.484V8.82482Z"
    fill="#4C4C4C" />
  <path fill-rule="evenodd" clip-rule="evenodd"
    d="M63.5647 12.4958V12.4724C63.5647 11.0958 64.6156 10.4602 66.1146 10.4602C66.7524 10.4602 67.2129 10.566 67.6614 10.7189V10.6131C67.6614 9.87215 67.2013 9.46002 66.3035 9.46002C65.8076 9.46002 65.4065 9.53097 65.0641 9.63677C64.958 9.67203 64.8872 9.68393 64.8045 9.68393C64.3909 9.68393 64.0605 9.36612 64.0605 8.95399C64.0605 8.6366 64.2613 8.36596 64.5444 8.25974C65.1114 8.04815 65.7254 7.93088 66.5635 7.93088C67.5437 7.93088 68.2518 8.18963 68.7003 8.6366C69.1727 9.10694 69.385 9.80162 69.385 10.6488V13.5193C69.385 14.002 68.9958 14.3784 68.5119 14.3784C67.9922 14.3784 67.6498 14.0139 67.6498 13.637V13.6251C67.2129 14.1078 66.6104 14.4251 65.7373 14.4251C64.5444 14.4251 63.5647 13.7432 63.5647 12.4958ZM67.6852 12.0841V11.7663C67.3783 11.6252 66.9767 11.5309 66.5401 11.5309C65.7723 11.5309 65.3003 11.8368 65.3003 12.4019V12.4252C65.3003 12.9079 65.7015 13.19 66.28 13.19C67.1182 13.19 67.6852 12.7312 67.6852 12.0841Z"
    fill="#4C4C4C" />
  <path fill-rule="evenodd" clip-rule="evenodd"
    d="M70.3417 8.82483C70.3417 8.33069 70.7433 7.93088 71.2392 7.93088C71.7354 7.93088 72.1366 8.33069 72.1366 8.82483V9.10694C72.3962 8.49554 72.8213 7.93088 73.3529 7.93088C73.9076 7.93088 74.2261 8.29543 74.2261 8.80103C74.2261 9.2718 73.9191 9.55434 73.5533 9.63677C72.6444 9.84878 72.1366 10.5426 72.1366 11.8134V13.484C72.1366 13.9782 71.7354 14.3784 71.2392 14.3784C70.7433 14.3784 70.3417 13.9782 70.3417 13.484V8.82483Z"
    fill="#4C4C4C" />
  <path fill-rule="evenodd" clip-rule="evenodd"
    d="M74.7696 6.54195C74.7696 6.04782 75.1708 5.64801 75.6666 5.64801C76.1629 5.64801 76.5645 6.04782 76.5645 6.54195V13.484C76.5645 13.9782 76.1629 14.3784 75.6666 14.3784C75.1708 14.3784 74.7696 13.9782 74.7696 13.484V6.54195Z"
    fill="#4C4C4C" />
  <path fill-rule="evenodd" clip-rule="evenodd"
    d="M77.9932 16.0609C77.7331 15.967 77.4261 15.755 77.4261 15.3199C77.4261 14.8844 77.7685 14.59 78.1347 14.59C78.2763 14.59 78.359 14.6138 78.4297 14.6372C78.5832 14.6843 78.6779 14.7081 78.8079 14.7081C79.1264 14.7081 79.2799 14.6491 79.4453 14.3312L79.5041 14.1902L77.3439 9.20127C77.2965 9.08358 77.2492 8.90725 77.2492 8.78956C77.2492 8.28353 77.6389 7.93088 78.1347 7.93088C78.5832 7.93088 78.8429 8.17774 78.9963 8.60091L80.3662 12.2723L81.6882 8.61281C81.8302 8.23679 82.0894 7.93088 82.5503 7.93088C83.0107 7.93088 83.4 8.28353 83.4 8.7543C83.4 8.89578 83.3531 9.09547 83.3177 9.1779L81.1097 14.4608C80.5785 15.7431 80.0473 16.2258 78.9729 16.2258C78.5713 16.2258 78.2882 16.1671 77.9932 16.0609Z"
    fill="#4C4C4C" />
  <path fill-rule="evenodd" clip-rule="evenodd"
    d="M19.6114 11.1472C19.6114 16.544 15.2215 20.9194 9.80572 20.9194C4.3904 20.9194 0 16.544 0 11.1472C0 5.74997 4.3904 1.375 9.80572 1.375C15.2215 1.375 19.6114 5.74997 19.6114 11.1472Z"
    fill="#15C39A" />
  <path fill-rule="evenodd" clip-rule="evenodd"
    d="M11.0873 13.2571C11.1453 13.5771 11.4472 13.7963 11.7733 13.7963H12.8008L13.3964 13.713C12.4435 15.1062 10.7889 15.7473 8.97997 15.4644C7.50741 15.2341 6.24247 14.2412 5.7087 12.8544C4.49705 9.70643 6.80395 6.70085 9.81005 6.70085C11.3768 6.70085 12.7505 7.61476 13.5384 8.71859C13.7477 9.01898 14.1625 9.12902 14.4644 8.92041C14.7509 8.72241 14.8344 8.3464 14.6622 8.05068C13.5725 6.35542 11.6143 5.27071 9.41228 5.41771C6.54517 5.60933 4.22505 7.94744 4.06006 10.8064C3.86863 14.1332 6.5166 16.8495 9.81005 16.8495C11.5401 16.8495 13.089 16.0987 14.1442 14.884L14.0193 15.5808V16.2105C14.0193 16.5351 14.2388 16.8363 14.5599 16.8941C14.9815 16.9697 15.3481 16.6489 15.3481 16.2428V12.4715H11.7405C11.3329 12.4715 11.011 12.8374 11.0873 13.2571Z"
    fill="white" />
</svg>