<svg width="20" height="20" viewBox="0 0 20 20" fill="none" xmlns="http://www.w3.org/2000/svg">
  <path
    d="M10 19.375C15.1777 19.375 19.375 15.1777 19.375 10C19.375 4.82233 15.1777 0.625 10 0.625C4.82233 0.625 0.625 4.82233 0.625 10C0.625 15.1777 4.82233 19.375 10 19.375Z"
    fill="url(#paint0_linear)" />
  <path
    d="M7.05938 16.2909C8.71407 15.0994 11.2859 15.0994 12.9413 16.2909C13.1953 16.4728 13.3463 16.2763 13.2653 16.1213C11.6566 13.0463 8.34344 13.0463 6.73469 16.1213C6.65376 16.2763 6.80469 16.4728 7.05938 16.2909Z"
    fill="#302C3B" />
  <path
    d="M16.1625 10.6865C14.5672 11.2909 12.4887 10.734 11.409 9.41279C11.2437 9.21092 11.0787 9.33717 11.1106 9.47998C11.7447 12.3125 14.4225 13.0303 16.3878 10.8934C16.4865 10.7862 16.4072 10.5944 16.1625 10.6865Z"
    fill="#302C3B" />
  <path
    d="M8.59096 9.41279C7.51127 10.7344 5.43314 11.2909 3.83752 10.6865C3.59314 10.5944 3.51346 10.7859 3.61221 10.8934C5.57752 13.0303 8.25533 12.3125 8.88939 9.47998C8.92158 9.33717 8.75658 9.21092 8.59096 9.41279Z"
    fill="#302C3B" />
  <defs>
    <linearGradient id="paint0_linear" x1="10.0002" y1="19.375" x2="10.0002" y2="0.625156"
      gradientUnits="userSpaceOnUse">
      <stop stop-color="#FFA027" />
      <stop offset="0.2723" stop-color="#FFC151" />
      <stop offset="0.7633" stop-color="#FFC93F" />
      <stop offset="1" stop-color="#FFE261" />
    </linearGradient>
  </defs>
</svg>