<svg width="32" height="32" xmlns="http://www.w3.org/2000/svg"><g fill="none"><path d="M24 16a8 8 0 01-16 0c0 .002 8-8 8-8a8 8 0 018 8z" fill="#006"/><path d="M16 12.174V8h-.001A8 8 0 008 16h4.174v-2.35l2.35 2.35h1.456l.02-.021v-1.455l-2.35-2.35H16z" fill="#F0F2FC"/><path d="M12.023 9H16v2.1h-4.9V16H9v-3.977A8.088 8.088 0 0112.023 9zM16 15.01V16l-3.85-3.85h.99L16 15.01z" fill="#CE1331"/><path d="M13 17.25l.492.99 1.112-.247-.498.987.894.682-1.113.24L13.89 21l-.89-.686-.89.686.003-1.097L11 19.662l.894-.682-.498-.987 1.112.247.492-.99zM20 19l.246.488.556-.122-.249.487.447.337-.557.119.002.541-.445-.339-.445.339.001-.541-.556-.12.447-.336-.249-.487.556.122L20 19zm-2-4l.246.488.556-.122-.249.487.447.337-.556.119.001.541-.445-.339-.445.339.001-.541-.556-.12.447-.336-.249-.487.556.122L18 15zm2-3l.246.488.556-.122-.249.487.447.337-.556.119.001.541-.445-.339-.445.339.001-.541-.556-.12.447-.336-.249-.487.556.122L20 12zm2 2l.246.488.556-.122-.249.487.447.337-.557.119.002.541-.445-.339-.445.339.001-.541-.556-.12.447-.336-.249-.487.556.122L22 14zm-1.24 2.333l.179.51h.577l-.467.314.178.51-.467-.315-.467.315.178-.51-.467-.314h.578l.178-.51z" fill="#F0F2FC"/></g></svg>