<svg width="54" height="53" fill="none" xmlns="http://www.w3.org/2000/svg"><path fill-rule="evenodd" clip-rule="evenodd" d="M36.25 33c0 8.974-7.275 16.25-16.25 16.25-8.974 0-16.25-7.276-16.25-16.25 0-8.975 7.276-16.25 16.25-16.25 8.975 0 16.25 7.275 16.25 16.25z" fill="#15C39A"/><path fill-rule="evenodd" clip-rule="evenodd" d="M22.124 36.509c.096.532.596.896 1.137.896h1.702l.987-.138c-1.579 2.316-4.32 3.383-7.319 2.912-2.44-.383-4.536-2.034-5.42-4.34-2.009-5.235 1.814-10.233 6.796-10.233 2.596 0 4.874 1.56 6.18 3.395.347.5 1.033.643 1.533.296.475-.33.613-.954.328-1.446a9.535 9.535 0 00-8.7-4.378c-4.751.318-8.596 4.206-8.87 8.96-.317 5.532 4.071 10.05 9.53 10.05a9.447 9.447 0 007.182-3.27l-.207 1.16v1.047c0 .54.363 1.04.895 1.136a1.102 1.102 0 001.307-1.083v-6.27h-5.979c-.675 0-1.209.607-1.082 1.306z" fill="#fff"/><g filter="url(#filter0_d)"><path d="M36.232 8.029a2.034 2.034 0 013.536 0l7.956 13.885c.785 1.372-.197 3.086-1.768 3.086H30.044c-1.571 0-2.553-1.714-1.768-3.086L36.233 8.03z" fill="#FFB61A"/></g><g filter="url(#filter1_d)"><path d="M38 12.5v5" stroke="#fff" stroke-width="2" stroke-linecap="round"/></g><g filter="url(#filter2_d)"><circle cx="38" cy="21.25" r="1.25" fill="#fff"/></g><defs><filter id="filter0_d" x="28" y="7" width="20" height="19" filterUnits="userSpaceOnUse" color-interpolation-filters="sRGB"><feFlood flood-opacity="0" result="BackgroundImageFix"/><feColorMatrix in="SourceAlpha" values="0 0 0 0 0 0 0 0 0 0 0 0 0 0 0 0 0 0 127 0"/><feOffset dy="1"/><feColorMatrix values="0 0 0 0 0 0 0 0 0 0 0 0 0 0 0 0 0 0 0.15 0"/><feBlend in2="BackgroundImageFix" result="effect1_dropShadow"/><feBlend in="SourceGraphic" in2="effect1_dropShadow" result="shape"/></filter><filter id="filter1_d" x="37" y="11.5" width="2" height="8" filterUnits="userSpaceOnUse" color-interpolation-filters="sRGB"><feFlood flood-opacity="0" result="BackgroundImageFix"/><feColorMatrix in="SourceAlpha" values="0 0 0 0 0 0 0 0 0 0 0 0 0 0 0 0 0 0 127 0"/><feOffset dy="1"/><feColorMatrix values="0 0 0 0 0 0 0 0 0 0 0 0 0 0 0 0 0 0 0.15 0"/><feBlend in2="BackgroundImageFix" result="effect1_dropShadow"/><feBlend in="SourceGraphic" in2="effect1_dropShadow" result="shape"/></filter><filter id="filter2_d" x="36.75" y="20" width="2.5" height="3.5" filterUnits="userSpaceOnUse" color-interpolation-filters="sRGB"><feFlood flood-opacity="0" result="BackgroundImageFix"/><feColorMatrix in="SourceAlpha" values="0 0 0 0 0 0 0 0 0 0 0 0 0 0 0 0 0 0 127 0"/><feOffset dy="1"/><feColorMatrix values="0 0 0 0 0 0 0 0 0 0 0 0 0 0 0 0 0 0 0.15 0"/><feBlend in2="BackgroundImageFix" result="effect1_dropShadow"/><feBlend in="SourceGraphic" in2="effect1_dropShadow" result="shape"/></filter></defs></svg>