<svg width="32" height="32" viewBox="0 0 32 32" fill="none" xmlns="http://www.w3.org/2000/svg">
  <path fill-rule="evenodd" clip-rule="evenodd"
    d="M29 16C29 23.1794 23.18 29 16 29C8.82061 29 3 23.1794 3 16C3 8.82004 8.82061 3 16 3C23.18 3 29 8.82004 29 16Z"
    fill="#15C39A" />
  <path fill-rule="evenodd" clip-rule="evenodd"
    d="M17.6991 18.8069C17.7759 19.2325 18.1761 19.5241 18.6085 19.5241H19.9707L20.7603 19.4133C19.497 21.2667 17.3034 22.1196 14.9052 21.7432C12.9529 21.4368 11.2759 20.1159 10.5683 18.271C8.96192 14.0833 12.0203 10.085 16.0057 10.085C18.0828 10.085 19.9051 11.3324 20.9496 12.8009C21.2271 13.2005 21.776 13.3152 22.1761 13.0377C22.556 12.7743 22.6668 12.2741 22.4384 11.8807C20.9937 9.62547 18.3977 8.18247 15.4783 8.37804C11.6772 8.63295 8.60131 11.7433 8.38257 15.5467C8.12879 19.9723 11.6394 23.5858 16.0057 23.5858C18.2993 23.5858 20.3527 22.587 21.7517 20.9711L21.5861 21.898V22.7357C21.5861 23.1675 21.8771 23.5683 22.3028 23.6451C22.8618 23.7457 23.3478 23.319 23.3478 22.7786V17.7618H18.565C18.0246 17.7618 17.5979 18.2484 17.6991 18.8069Z"
    fill="white" />
</svg>