<svg width="20" height="20" viewBox="0 0 20 20" fill="none" xmlns="http://www.w3.org/2000/svg">
<path d="M7.1875 1.25C6.62 7.57062 5.46656 8.70875 0.625 9.375C5.46656 10.0413 6.62 11.1794 7.1875 17.5C7.755 11.1794 8.90812 10.0413 13.75 9.375C8.90812 8.70875 7.75437 7.57062 7.1875 1.25Z" fill="url(#paint0_linear_bacpt)"/>
<path d="M15.625 0.625C15.3009 3.78531 14.6419 4.35469 11.875 4.6875C14.6419 5.02031 15.3009 5.58969 15.625 8.75C15.9491 5.58969 16.6081 5.02031 19.375 4.6875C16.6081 4.35469 15.9491 3.78531 15.625 0.625Z" fill="url(#paint1_linear_bacpt)"/>
<path d="M13.75 11.25C13.4259 14.4103 12.7669 14.9794 10 15.3125C12.7669 15.6456 13.4259 16.215 13.75 19.375C14.0741 16.215 14.7331 15.6456 17.5 15.3125C14.7331 14.9794 14.0741 14.4103 13.75 11.25Z" fill="url(#paint2_linear_bacpt)"/>
<defs>
<linearGradient id="paint0_linear_bacpt" x1="7.1875" y1="17.4956" x2="7.1875" y2="1.24562" gradientUnits="userSpaceOnUse">
<stop stop-color="#FF9900"/>
<stop offset="0.022" stop-color="#FF9C03"/>
<stop offset="0.274" stop-color="#FFB91D"/>
<stop offset="0.5236" stop-color="#FFCE31"/>
<stop offset="0.7678" stop-color="#FFDB3C"/>
<stop offset="1" stop-color="#FFDF40"/>
</linearGradient>
<linearGradient id="paint1_linear_bacpt" x1="15.625" y1="8.75294" x2="15.625" y2="0.627938" gradientUnits="userSpaceOnUse">
<stop stop-color="#6FAD00"/>
<stop offset="0.0389" stop-color="#73B202"/>
<stop offset="0.2625" stop-color="#87CC0F"/>
<stop offset="0.4933" stop-color="#96DE17"/>
<stop offset="0.734" stop-color="#9EE91C"/>
<stop offset="1" stop-color="#A1ED1E"/>
</linearGradient>
<linearGradient id="paint2_linear_bacpt" x1="13.75" y1="19.3779" x2="13.75" y2="11.2529" gradientUnits="userSpaceOnUse">
<stop stop-color="#7D0C7A"/>
<stop offset="0.094" stop-color="#930C90"/>
<stop offset="0.254" stop-color="#B30DAE"/>
<stop offset="0.4208" stop-color="#CC0DC6"/>
<stop offset="0.5949" stop-color="#DD0ED8"/>
<stop offset="0.781" stop-color="#E80EE2"/>
<stop offset="1" stop-color="#EB0EE5"/>
</linearGradient>
</defs>
</svg>
