<svg width="32" height="32" viewBox="0 0 32 32" fill="none" xmlns="http://www.w3.org/2000/svg">
  <path
    d="M21.0202 11.6869C21.2155 11.4916 21.2155 11.175 21.0202 10.9798C20.825 10.7845 20.5084 10.7845 20.3131 10.9798L21.0202 11.6869ZM10.9798 20.3131C10.7845 20.5084 10.7845 20.825 10.9798 21.0202C11.175 21.2155 11.4916 21.2155 11.6869 21.0202L10.9798 20.3131ZM20.3131 10.9798L10.9798 20.3131L11.6869 21.0202L21.0202 11.6869L20.3131 10.9798ZM16 23.5C20.1421 23.5 23.5 20.1421 23.5 16H22.5C22.5 19.5899 19.5899 22.5 16 22.5V23.5ZM23.5 16C23.5 11.8579 20.1421 8.5 16 8.5V9.5C19.5899 9.5 22.5 12.4101 22.5 16H23.5ZM16 8.5C11.8579 8.5 8.5 11.8579 8.5 16H9.5C9.5 12.4101 12.4101 9.5 16 9.5V8.5ZM8.5 16C8.5 20.1421 11.8579 23.5 16 23.5V22.5C12.4101 22.5 9.5 19.5899 9.5 16H8.5Z"
    fill="#6D758D" />
</svg>