<svg width="32" height="32" xmlns="http://www.w3.org/2000/svg" xmlns:xlink="http://www.w3.org/1999/xlink"><defs><circle id="prefix__a" cx="8" cy="8" r="8"/></defs><g transform="translate(8 8)" fill="none" fill-rule="evenodd"><mask id="prefix__b" fill="#fff"><use xlink:href="#prefix__a"/></mask><use fill="#006" xlink:href="#prefix__a"/><path d="M12.621 6H19v4h-7.379l5.218 5.218-2.121 2.12L10 12.622V19H6v-6.379L1.282 17.34l-2.12-2.121L4.378 10H-3V6h6.379L-.84 1.782l2.121-2.12L6 4.378V-3h4v7.379L14.718-.34l2.12 2.121L12.622 6z" fill="#F0F2FC" mask="url(#prefix__b)"/><path d="M9.937 9l6.705 6.705-1.06 1.06L9 10.186V19H7v-8.074l-5.84 5.84L.1 15.705 6.805 9H-3V7h8.087L-1.016.898.045-.162 7 6.791V-3h2v9.101l6.264-6.264 1.06 1.06L10.223 7H19v2H9.937z" fill="#CE1331" mask="url(#prefix__b)"/><path d="M9-2h9v9H9v-9zm1 1v7h7v-7h-7zM-2-2h9v9h-9v-9zm1 1v7h7v-7h-7zM9 9h9v9H9V9zm1 1v7h7v-7h-7zM-2 9h9v9h-9V9zm1 1v7h7v-7h-7z" fill="#F0F2FC" fill-rule="nonzero" mask="url(#prefix__b)"/></g></svg>