<svg width="43px" height="43px" viewBox="0 0 43 43" version="1.1" xmlns="http://www.w3.org/2000/svg" xmlns:xlink="http://www.w3.org/1999/xlink">
  <defs>
    <path d="M0.519586135,24.0489018 L3.19395716,21.6884893 L27.6196752,21.6884893 L30.3050575,24.0487139 C30.6368552,24.3403361 30.8270383,24.7606913 30.8270383,25.2024301 L30.8270383,33.1457954 C30.8270383,33.5699501 30.483193,33.9137954 30.0590383,33.9137954 L0.768,33.9137954 C0.343845312,33.9137954 -2.9456582e-15,33.5699501 -2.99760217e-15,33.1457954 L-3.99680289e-15,25.2005089 C-4.05076398e-15,24.7598831 0.189229536,24.3404761 0.519586135,24.0489018 Z"
      id="path-1"></path>
    <filter x="-32.4%" y="-65.4%" width="164.9%" height="263.6%" filterUnits="objectBoundingBox" id="filter-2">
      <feOffset dx="0" dy="2" in="SourceAlpha" result="shadowOffsetOuter1"></feOffset>
      <feGaussianBlur stdDeviation="3" in="shadowOffsetOuter1" result="shadowBlurOuter1"></feGaussianBlur>
      <feColorMatrix values="0 0 0 0 0.505882353   0 0 0 0 0.537254902   0 0 0 0 0.662745098  0 0 0 0.652513587 0" type="matrix"
        in="shadowBlurOuter1"></feColorMatrix>
    </filter>
  </defs>
  <g id="Page-1" stroke="none" stroke-width="1" fill="none" fill-rule="evenodd">
    <g id="Pop-Up" transform="translate(-1269.000000, -656.000000)">
      <g id="beta_screen" transform="translate(1177.000000, 632.000000)">
        <g id="Group-2">
          <g id="gdocs-beta-small" transform="translate(97.000000, 24.000000)">
            <g id="beta-icon">
              <g transform="translate(0.877714, 0.815020)">
                <g id="Rectangle-128">
                  <use fill="black" fill-opacity="1" filter="url(#filter-2)" xlink:href="#path-1"></use>
                  <use fill="#555A70" fill-rule="evenodd" xlink:href="#path-1"></use>
                </g>
                <path d="M27.6149211,24.4305426 L3.21232081,24.4305426 C1.19837263,21.8679062 0,18.6534554 0,15.163785 C0,6.78876063 6.90123567,0 15.4135192,0 C23.9264728,0 30.8270383,6.78876063 30.8270383,15.163785 C30.8270383,18.6534554 29.6287821,21.8679062 27.6149211,24.4305426 Z"
                  id="Combined-Shape" fill="#15C39A"></path>
                <path d="M17.1948062,17.8782957 C17.2870938,18.3831906 17.767532,18.7291744 18.2866496,18.7291744 L19.9220396,18.7291744 L20.8700229,18.5977542 C19.3533853,20.7963603 16.7197967,21.8081616 13.8405602,21.3616012 C11.4967274,20.9981841 9.48336552,19.4311996 8.63377702,17.2426511 C6.70523826,12.274834 10.3770621,7.53163804 15.1617654,7.53163804 C17.6555655,7.53163804 19.8430494,8.97311399 21.0959918,10.7158955 C21.4573072,11.2184677 22.0894403,11.3636093 22.5698785,11.0343883 C23.0258877,10.7219301 23.1588904,10.1285278 22.884742,9.66185199 C21.1502786,6.98651247 18.0335374,5.27469748 14.5286455,5.50669434 C9.96516092,5.80909487 6.27230099,9.49891778 6.00968857,14.0107874 C5.70500387,19.2608897 9.91969572,23.5474676 15.1617654,23.5474676 C17.9154636,23.5474676 20.3807631,22.3626743 22.0602611,20.4456829 L21.8614357,21.5453212 L21.8614357,22.5390188 C21.8614357,23.0512893 22.210907,23.5266817 22.7218816,23.6178712 C23.3930022,23.7372222 23.9765854,23.2309863 23.9765854,22.5899776 L23.9765854,16.6385206 L18.2343985,16.6385206 C17.5856712,16.6385206 17.0733395,17.2158307 17.1948062,17.8782957 Z"
                  id="Fill-11" fill="#FFFFFF"></path>
                <path d="M9.81090481,30.0344492 C9.81090481,30.5047417 9.65414065,30.9302444 9.27342767,31.2213778 C8.86285486,31.5349062 8.37016749,31.5796959 7.8625502,31.5796959 L5.75743142,31.5796959 L5.75743142,26.2795742 L7.8625502,26.2795742 C8.28805293,26.2795742 8.72848558,26.3392939 9.08680367,26.5707076 C9.4749816,26.8245163 9.69893041,27.2649489 9.69893041,27.7203115 C9.69893041,28.1532792 9.49737648,28.6385016 9.04947887,28.8400555 C9.5496312,29.0714693 9.81090481,29.5417618 9.81090481,30.0344492 Z M8.72102062,27.7800312 C8.72102062,27.2724139 8.33284269,27.1081848 7.899875,27.1081848 L6.71294632,27.1081848 L6.71294632,28.4369477 L7.92226988,28.4369477 C8.35523757,28.4369477 8.72102062,28.2801835 8.72102062,27.7800312 Z M8.83299502,30.0120543 C8.83299502,29.4447173 8.43735213,29.2431634 7.92973484,29.2431634 L6.71294632,29.2431634 L6.71294632,30.7137605 L7.899875,30.7137605 C8.34777261,30.7137605 8.83299502,30.5495314 8.83299502,30.0120543 Z M14.4839699,31.572231 L10.714165,31.572231 L10.714165,26.2795742 L14.4839699,26.2795742 L14.4839699,27.1529745 L11.6771449,27.1529745 L11.6771449,28.384693 L14.1480467,28.384693 L14.1480467,29.2506283 L11.6771449,29.2506283 L11.6771449,30.6988306 L14.4839699,30.6988306 L14.4839699,31.572231 Z M18.9256212,27.1753694 L17.3579796,27.1753694 L17.3579796,31.572231 L16.3949997,31.572231 L16.3949997,27.1753694 L14.8273581,27.1753694 L14.8273581,26.2795742 L18.9256212,26.2795742 L18.9256212,27.1753694 Z M23.7405206,31.572231 L22.7327509,31.572231 L22.3893628,30.5569964 L20.284244,30.5569964 L19.9408558,31.572231 L18.970411,31.572231 L20.8291861,26.2795742 L21.8817455,26.2795742 L23.7405206,31.572231 Z M22.0907643,29.691061 L21.3368034,27.4590379 L20.5828424,29.691061 L22.0907643,29.691061 Z"
                  id="BETA" fill="#FFFFFF"></path>
              </g>
            </g>
          </g>
        </g>
      </g>
    </g>
  </g>
</svg>