<svg width="30" height="16" viewBox="0 0 30 16" fill="none" xmlns="http://www.w3.org/2000/svg">
<path d="M0 3C0 1.34315 1.34315 0 3 0H27C28.6569 0 30 1.34315 30 3V13C30 14.6569 28.6569 16 27 16H3C1.34315 16 0 14.6569 0 13V3Z" fill="#D7F7F0"/>
<path d="M5.1926 12H9.63862V11.2188H6.07328V8.74716H9.35453V7.96591H6.07328V5.50852H9.5818V4.72727H5.1926V12ZM13.8135 12C16.0294 12 17.2794 10.6222 17.2794 8.34943C17.2794 6.09091 16.0294 4.72727 13.9129 4.72727H11.5692V12H13.8135ZM12.4498 11.2188V5.50852H13.8561C15.5606 5.50852 16.4271 6.58807 16.4271 8.34943C16.4271 10.125 15.5606 11.2188 13.7567 11.2188H12.4498ZM23.9294 4.72727V9.47159C23.9294 10.5369 23.1979 11.304 21.9834 11.304C20.7689 11.304 20.0373 10.5369 20.0373 9.47159V4.72727H19.1567V9.54261C19.1567 11.0341 20.2717 12.1278 21.9834 12.1278C23.695 12.1278 24.8101 11.0341 24.8101 9.54261V4.72727H23.9294Z" fill="#0D8065"/>
</svg>
