<svg width="72" height="48" xmlns="http://www.w3.org/2000/svg"><g transform="translate(0 1)" fill="none" fill-rule="evenodd"><path d="M51 45.768v-13.93h10.526a1.995 1.995 0 0 1 1.956 2.407l-1.916 8.893a3.33 3.33 0 0 1-3.256 2.63" stroke="#3B3E4D" stroke-width="1.62" stroke-linecap="round" stroke-linejoin="round"/><ellipse fill="#A2BCFF" fill-rule="nonzero" style="mix-blend-mode:multiply" cx="23" cy="5.97" rx="5" ry="4.975"/><ellipse fill="#A2BCFF" fill-rule="nonzero" style="mix-blend-mode:multiply" cx="5" cy="9.95" rx="5" ry="4.975"/><path d="M21 7.96c0-2.198-1.79-3.98-4-3.98 2.21 0 4-1.782 4-3.98 0 2.198 1.79 3.98 4 3.98M7 7.96c0 2.198 1.79 3.98 4 3.98-2.21 0-4 1.781-4 3.98 0-2.199-1.79-3.98-4-3.98" stroke="#3B3E4D" stroke-width="1.62" stroke-linecap="round" stroke-linejoin="round"/><path d="M57.823 25.727c.814 1.734 3.604 4.03 8.15 1.658 3.03-1.582 4.974-5.449 5.832-11.6.397-4.682-.088-7.258-1.455-7.728-2.051-.706-2.281-1.902-4.377-.763-2.096 1.138-5.153 1.546-5.552 0-.398-1.547-.473-6.257-2.598-5.857-2.124.4-6.565 5.243-8.294 14.063s3.474 8.096 5.2 8.096 2.28.397 3.094 2.13z" fill="#68DEC2" style="mix-blend-mode:multiply"/><path d="M58.082 26.454c3.253 1.517 6.581-.964 8.756-5.628 2.444-5.24 3.162-13.305.656-14.487-1.518-.717-4.204 1.059-6.638 3.727m-1.766 2.157c-.19.259-.377.521-.557.786M60.77 17.998c-2.477 4.492-4.04 8.028-4.688 10.608M52.947 11.573c-1.547 4.512-2.09 9.284-1.63 14.316" stroke="#3B3E4D" stroke-width="1.62" stroke-linecap="round" stroke-linejoin="round"/><path d="M57.128 3.208c-.563-1.104-1.252-1.83-2.045-1.973-2.994-.542-7.446 7.099-8.538 13.296-.972 5.51.47 9.799 4.313 10.477" stroke="#3B3E4D" stroke-width="1.62" stroke-linecap="round" stroke-linejoin="round"/><g transform="translate(9 15)"><path d="M4 15.844v-9.95C4 3.147 6.239.919 9 .919h29c2.761 0 5 2.228 5 4.975v24.874" stroke="#3B3E4D" stroke-width="1.62" fill="#FFF" stroke-linecap="round" stroke-linejoin="round"/><path d="M21.002 27.783h5.016a1.62 1.62 0 0 0 1.442-.881l.058-.114c.313-.61.942-.995 1.628-.995H47v.995c0 2.198-1.79 3.98-4 3.98H4c-2.21 0-4-1.782-4-3.98v-.995h17.004M4 18.89v.945" stroke="#3B3E4D" stroke-width="1.62" fill="#FFF" stroke-linecap="round" stroke-linejoin="round"/><ellipse fill="#3B3E4D" fill-rule="nonzero" cx="4" cy="22.808" rx="1" ry="1"/><path d="M14.5 7.884h18M14.5 12.859h18M14.5 17.833h11" stroke="#8189A9" stroke-width="1.62" fill="#FFF" stroke-linecap="round" stroke-linejoin="round"/></g></g></svg>