<svg width="256" height="48" viewBox="0 0 256 48" fill="none" xmlns="http://www.w3.org/2000/svg">
  <g clip-path="url(#clip0)">
    <circle cx="23.8952" cy="23.8952" r="22.8952" fill="#99C2FF" />
    <path
      d="M32.0399 13.8093C29.7626 9.64563 27.4853 5.82893 19.9109 8.90212C13.5742 11.4301 14.6633 19.807 16.7426 26.8952C17.0396 27.9361 16.9406 29.0266 16.396 29.9683L11.0494 39.5845L28.624 42.9055L27.8319 35.5695C27.5844 33.1902 28.8715 30.9597 31.0003 29.8692C32.3864 29.1257 32.4854 27.49 33.5251 22.5828H36.5449L32.0399 13.8093Z"
      fill="#74D9FA" stroke="#303A68" stroke-width="0.897849" stroke-miterlimit="10" />
    <path
      d="M96.1995 90.193L47.8322 81.37L25.8516 45.5822C21.4456 38.3949 11.3959 37.354 5.60368 43.5003C1.64321 47.664 0.999634 53.9591 3.92049 58.9159L30.2576 102.833H94.0212C94.0212 102.833 112.14 101.742 126.992 101.742C118.378 78.7924 104.962 85.2362 96.1995 90.193Z"
      fill="#74D9FA" stroke="#303A68" stroke-width="0.897849" stroke-miterlimit="10" />
    <path
      d="M117.635 97.3307L69.268 88.5076L47.2873 52.7199C42.8813 45.5326 32.8316 44.4916 27.0394 50.638C23.0789 54.8017 22.4354 61.0968 25.3562 66.0535L51.6934 109.97H115.407C115.407 109.97 133.527 108.88 148.378 108.88C139.814 85.9797 126.398 92.3739 117.635 97.3307Z"
      fill="#74D9FA" stroke="#303A68" stroke-width="0.897849" stroke-miterlimit="10" />
    <path
      d="M-38.9518 112.201L-0.832241 45.1857C4.95995 35.0243 16.5938 31.0589 26.5445 35.8174L33.7724 39.2871C43.228 43.8474 45.9508 56.9828 44.0201 68.185L38.723 112.201H-38.9518Z"
      fill="#FFCEDD" stroke="#303A68" stroke-width="0.897849" stroke-miterlimit="10" />
    <path
      d="M18.7723 66.5988L41.248 100.106L67.0405 80.8247L46.149 48.5066C41.0499 40.6253 30.4557 38.6426 22.8318 44.0951C15.6534 49.2501 13.8712 59.2132 18.7723 66.5988Z"
      fill="#FFCEDD" stroke="#303A68" stroke-width="0.897849" stroke-miterlimit="10" />
    <path
      d="M13.772 25.2595C9.91051 14.8007 12.1383 8.75345 18.7226 6.02723C25.3069 3.30102 30.802 7.11772 33.0298 9.34826C30.406 10.7857 28.3762 12.1736 26.9901 13.165C25.8019 14.0076 25.1583 15.3955 25.3564 16.833C25.4554 17.8739 25.5544 18.8652 25.6534 19.6583C25.7524 20.6497 24.5643 21.1949 23.8712 20.501L23.1286 19.7575C22.089 18.7165 20.3068 19.807 20.8018 21.1949C21.4949 23.2768 22.584 25.2595 22.584 25.2595H13.772Z"
      fill="#303A68" />
  </g>
  <rect x="1" y="1" width="45" height="45" rx="22.5" stroke="white" stroke-width="0.897849" />
  <g clip-path="url(#clip1)">
    <circle cx="64.2985" cy="23.8952" r="22.8952" fill="#99C2FF" />
    <path
      d="M59.0459 31.6307C55.4296 30.4475 49.0269 36.4228 44.6991 58.3716C40.3714 80.3205 39.4228 86.2958 39.4228 86.2958C71.4955 86.2958 95.1499 86.2958 95.1499 86.2958C95.1499 86.2958 82.7002 62.9271 67.6421 36.8961C62.8401 30.6841 60.4687 32.104 59.0459 31.6307Z"
      fill="#68DEC2" stroke="#303A68" stroke-width="0.897849" stroke-miterlimit="10" />
    <path
      d="M120.464 84.2251L118.923 67.8374L87.1467 66.2992L70.8436 42.2797C67.5236 37.4284 60.706 36.6593 56.3782 40.6231C53.0583 43.6995 52.3469 48.6099 54.5997 52.4554L72.2664 82.6869L120.464 84.2251Z"
      fill="#68DEC2" stroke="#303A68" stroke-width="0.897849" stroke-miterlimit="10" />
    <path
      d="M71.4363 15.4205L77.6611 23.0523L74.8155 23.5256C74.8155 23.5256 76.2383 35.4762 65.745 29.7375C64.3222 29.2642 62.8994 32.104 64.7965 34.5296C66.6936 36.896 56.2003 36.4228 57.6231 31.2166C57.8602 24.2947 57.8603 22.4015 57.8603 22.4015C56.4374 17.6094 57.1488 13.5865 63.3737 11.6342C69.5392 9.68183 70.0135 13.4682 71.4363 15.4205Z"
      fill="#FB94B3" stroke="#303A68" stroke-width="0.897849" stroke-miterlimit="10" />
    <path
      d="M39.9566 1.39913C44.1657 -2.32803 52.3469 5.65875 57.5639 10.4508C57.6825 10.3917 57.8011 10.2733 57.9196 10.2142C64.263 5.83624 68.7094 6.60533 73.9856 12.9948C74.2821 13.4089 74.2228 13.9413 73.8078 14.2371C71.6143 15.657 69.3615 17.0177 68.4129 17.5502C68.1758 17.6685 67.9979 17.9643 67.9979 18.2601C67.9979 19.2067 67.8794 20.5083 67.7608 21.6323C67.7015 22.4606 66.5751 22.6972 66.1601 21.9873C65.7451 21.2773 64.678 21.514 64.5595 22.3423C64.3816 24.6495 63.4924 27.1935 60.3503 26.8977C56.1411 26.5427 53.0583 19.9166 54.659 14.6513C42.4465 10.6283 35.7474 5.1263 39.9566 1.39913Z"
      fill="#303A68" />
  </g>
  <rect x="41.4033" y="1" width="45" height="45" rx="22.5" stroke="white" stroke-width="0.897849" />
  <g clip-path="url(#clip2)">
    <circle cx="104.702" cy="23.8952" r="22.8952" fill="#99C2FF" />
    <path
      d="M112.846 13.8093C110.569 9.64562 108.291 5.82891 100.717 8.9021C94.3803 11.4301 95.4695 19.807 97.5487 26.8951C97.8458 27.9361 97.7467 29.0265 97.2022 29.9683L91.8555 39.5844L109.43 42.9055L108.638 35.5695C108.391 33.1902 109.16 29.9683 113.13 29.9683C113.571 27.4706 114.012 24.8235 114.331 22.5828H117.351L112.846 13.8093Z"
      fill="#68DEC2" stroke="#303A68" stroke-width="0.897849" stroke-miterlimit="10" />
    <ellipse cx="111.885" cy="17.1613" rx="2.24462" ry="3.5914" fill="white" stroke="#303A68" stroke-width="0.897849"
      stroke-miterlimit="10" />
    <ellipse cx="116.374" cy="17.1613" rx="2.24462" ry="3.5914" fill="white" stroke="#303A68" stroke-width="0.897849"
      stroke-miterlimit="10" />
    <path
      d="M177.006 90.193L128.639 81.37L106.658 45.5822C102.252 38.3949 92.2025 37.354 86.4103 43.5003C82.4499 47.664 81.8063 53.9591 84.7271 58.9159L111.064 102.833H174.828C174.828 102.833 192.947 101.742 207.799 101.742C199.185 78.7924 185.769 85.2362 177.006 90.193Z"
      fill="#74D9FA" stroke="#303A68" stroke-width="0.897849" stroke-miterlimit="10" />
    <path
      d="M198.442 97.3307L150.075 88.5076L128.094 52.7199C123.688 45.5326 113.638 44.4916 107.846 50.638C103.886 54.8017 103.242 61.0968 106.163 66.0535L132.5 109.97H196.214C196.214 109.97 214.333 108.88 229.185 108.88C220.621 85.9797 207.204 92.3739 198.442 97.3307Z"
      fill="#74D9FA" stroke="#303A68" stroke-width="0.897849" stroke-miterlimit="10" />
    <path
      d="M41.8549 112.201L79.9744 45.1857C85.7666 35.0243 97.4005 31.0589 107.351 35.8174L114.579 39.2871C124.035 43.8473 126.757 56.9828 124.827 68.185L119.53 112.201H41.8549Z"
      fill="#74D9FA" stroke="#303A68" stroke-width="0.897849" stroke-miterlimit="10" />
    <path
      d="M99.5784 66.5987L122.054 100.106L147.847 80.8246L126.955 48.5065C121.856 40.6253 111.262 38.6426 103.638 44.095C96.4596 49.25 94.6774 59.2131 99.5784 66.5987Z"
      fill="#74D9FA" stroke="#303A68" stroke-width="0.897849" stroke-miterlimit="10" />
    <path
      d="M111.014 12.2327C111.014 12.2327 119.029 8.31892 115.167 3.07974C112.892 -0.00763786 110.373 0.912337 108.694 2.20654C107.458 3.1577 105.84 3.31363 104.435 2.65873C103.092 2.03502 101.367 1.6452 99.8707 2.62754C98.5426 3.50074 97.2451 7.38335 97.3825 8.58399C94.0699 8.52162 89.2002 13.1215 95.3216 21.9626C95.3216 21.9626 97.8404 26.7496 97.6267 30.1176C98.5274 27.5137 102.909 19.9356 102.909 19.9356C102.909 19.9356 99.7181 17.0041 101.214 15.476C102.71 13.9479 104.786 17.5031 104.969 19.0156L105.443 22.1653L107 21.9782L105.992 13.87L111.014 12.2327Z"
      fill="#303A68" />
  </g>
  <rect x="81.8066" y="1" width="45" height="45" rx="22.5" stroke="white" stroke-width="0.897849" />
  <g clip-path="url(#clip3)">
    <circle cx="145.105" cy="23.8952" r="22.8952" fill="#99C2FF" />
    <path
      d="M142.852 31.6307C139.236 30.4475 132.833 36.4227 128.505 58.3716C124.178 80.3204 123.229 86.2957 123.229 86.2957C155.302 86.2957 178.956 86.2957 178.956 86.2957C178.956 86.2957 166.506 62.927 151.448 36.896C146.646 30.6841 144.275 32.104 142.852 31.6307Z"
      fill="#68DEC2" stroke="#303A68" stroke-width="0.897849" stroke-miterlimit="10" />
    <path
      d="M204.271 84.225L202.729 67.8373L170.953 66.2991L154.65 42.2796C151.33 37.4284 144.512 36.6593 140.184 40.6231C136.864 43.6995 136.153 48.6099 138.406 52.4554L156.073 82.6868L204.271 84.225Z"
      fill="#68DEC2" stroke="#303A68" stroke-width="0.897849" stroke-miterlimit="10" />
    <path
      d="M155.242 15.4204L161.467 23.0523L158.622 23.5256C158.622 23.5256 160.044 35.4761 149.551 29.7375C148.128 29.2642 146.706 32.1039 148.603 34.5296C150.5 36.896 140.006 36.4227 141.429 31.2165C141.666 24.2947 141.666 22.4015 141.666 22.4015C140.244 17.6094 140.955 13.5864 147.18 11.6341C153.345 9.6818 153.82 13.4681 155.242 15.4204Z"
      fill="#74D9FA" stroke="#303A68" stroke-width="0.897849" stroke-miterlimit="10" />
    <path
      d="M101.421 7.7932C101.74 7.10058 102.16 6.43707 102.742 5.96889C103.677 5.21775 104.927 5.06287 106.045 5.2768C107.162 5.49246 108.181 6.03686 109.182 6.57659C108.524 4.86185 107.863 2.92196 108.558 1.15441C109.194 -0.463456 110.872 -1.47022 112.497 -1.60929C114.125 -1.74779 115.698 -1.15762 117.112 -0.377943C119.502 0.941947 121.589 2.8339 123.184 5.12718C123.781 5.98758 124.597 7.01942 125.6 6.70219C126.104 6.54272 126.464 6.07542 126.852 5.69265C128.367 4.19993 130.659 3.84744 132.56 4.47103C132.973 5.12718 133.673 5.4409 140.05 4.62096C141.715 4.40852 143.284 5.3186 144.511 6.45138C145.277 7.15678 145.959 7.96237 146.545 8.84398C146.968 8.63941 147.443 8.56484 147.904 8.53789C149.692 8.43447 151.48 8.94678 152.932 9.97818C153.978 10.7214 154.909 12.1184 154.309 13.3573C153.904 14.1903 152.958 14.571 152.092 14.6532C151.226 14.7355 150.353 14.6029 149.495 14.7777C150.483 14.7631 151.057 16.2564 150.367 17.04C150.147 17.289 149.678 17.3952 149.652 17.7288C149.575 18.7647 150.863 19.9661 149.755 20.0325C148.869 20.0859 148.281 17.4226 147.38 18.6828C147.155 18.9984 147.042 19.3862 147.048 19.7722C147.059 20.4621 147.355 21.0686 147.572 21.6972C148.002 22.943 148.112 24.3782 147.607 25.6422C147.102 26.9044 145.892 27.9256 144.622 27.8863C142.957 27.8357 142.067 27.4744 141.124 26.1101C140.996 25.9252 140.811 25.7936 140.595 25.756C140.2 25.6861 140.047 26.2599 139.92 26.5179C139.427 27.5252 139.359 27.6484 138.727 28.5701C137.535 30.3071 134.741 29.9896 132.973 29.1356C131.203 28.2811 129.956 26.6054 128.774 24.9823C128.243 25.9039 127.685 26.8563 126.848 27.4734C125.437 28.5128 123.525 28.3452 122.043 27.5837C120.56 26.8215 119.387 25.5586 118.149 24.4183C117.747 24.048 117.301 23.6729 116.76 23.6243C116.137 23.5691 115.547 23.9546 114.955 24.2108C112.648 25.2105 110.093 24.2553 108.006 22.9969C105.499 21.4841 103.196 19.469 101.818 16.7808C100.447 14.0898 100.106 10.6549 101.421 7.7932Z"
      fill="#303A68" stroke="#303A68" stroke-width="0.897849" stroke-miterlimit="10" />
  </g>
  <rect x="122.21" y="1" width="45" height="45" rx="22.5" stroke="white" stroke-width="0.897849" />
  <defs>
    <clipPath id="clip0">
      <rect x="1" y="1" width="45" height="45" rx="22.5" fill="white" />
    </clipPath>
    <clipPath id="clip1">
      <rect x="41.4033" y="1" width="45" height="45" rx="22.5" fill="white" />
    </clipPath>
    <clipPath id="clip2">
      <rect x="81.8066" y="1" width="45" height="45" rx="22.5" fill="white" />
    </clipPath>
    <clipPath id="clip3">
      <rect x="122.21" y="1" width="45" height="45" rx="22.5" fill="white" />
    </clipPath>
  </defs>
</svg>