<svg viewBox="0 0 24 24" version="1.1" xmlns="http://www.w3.org/2000/svg"><path d="M24,12C24,5.377 18.623,0 12,0C5.377,0 0,5.377 0,12C0,18.623 5.377,24 12,24C18.623,24 24,18.623 24,12Z" fill="rgb(109,117,141)"/><path d="M12.5,23.523L12.5,6.5L4.5,6.5L4.5,21.365C4.15,21.085 3.816,20.785 3.5,20.467L3.5,6C3.5,5.724 3.724,5.5 4,5.5L13,5.5C13.276,5.5 13.5,5.724 13.5,6L13.5,9.67L20.197,12.54C20.381,12.619 20.5,12.8 20.5,13L20.5,20.467L20.483,20.484C20.172,20.795 19.844,21.089 19.5,21.365L19.5,13.33L13.5,10.758L13.5,23.849L13.5,23.907C13.17,23.948 12.837,23.976 12.5,23.99L12.5,23.523ZM16,19L16,22L17,22L17,19L16,19ZM6.5,19L6.5,22L7.5,22L7.5,19L6.5,19ZM9.5,19L9.5,22L10.5,22L10.5,19L9.5,19ZM16,14L16,17L17,17L17,14L16,14ZM6.5,14L6.5,17L7.5,17L7.5,14L6.5,14ZM9.5,14L9.5,17L10.5,17L10.5,14L9.5,14ZM6.5,9L6.5,12L7.5,12L7.5,9L6.5,9ZM9.5,9L9.5,12L10.5,12L10.5,9L9.5,9Z" fill="white" /></svg>