<svg width="24" height="24" viewBox="0 0 24 24" fill="none" xmlns="http://www.w3.org/2000/svg">
  <path
    d="M9 19.3182C9.27614 19.3182 9.5 19.0943 9.5 18.8182C9.5 18.542 9.27614 18.3182 9 18.3182V19.3182ZM5 18.3182C4.72386 18.3182 4.5 18.542 4.5 18.8182C4.5 19.0943 4.72386 19.3182 5 19.3182V18.3182ZM11.899 17.7374C11.7037 17.5421 11.3872 17.5421 11.1919 17.7374C10.9966 17.9326 10.9966 18.2492 11.1919 18.4445L11.899 17.7374ZM14.4545 21L14.101 21.3536L14.4545 21.7071L14.8081 21.3536L14.4545 21ZM21.3536 14.8081C21.5488 14.6128 21.5488 14.2963 21.3536 14.101C21.1583 13.9057 20.8417 13.9057 20.6464 14.101L21.3536 14.8081ZM16.0697 16.0024C16.322 16.1145 16.6175 16.0009 16.7296 15.7485C16.8418 15.4962 16.7281 15.2007 16.4758 15.0885L16.0697 16.0024ZM14.9938 14.977L14.7907 15.4339L14.9938 14.977ZM14.8992 14.9346L14.6893 15.3884L14.8992 14.9346ZM13.0004 12.0128L12.5004 12.0202L13.0004 12.0128ZM8.13943 15.0666L7.91582 14.6194L8.13943 15.0666ZM8.40787 14.929L8.165 14.4919L8.40787 14.929ZM10.0878 12.2108L10.5873 12.2325L10.0878 12.2108ZM5.0031 18.5165L4.50358 18.4947L5.0031 18.5165ZM6.95148 15.6606L6.72787 15.2134L6.95148 15.6606ZM6.68304 15.7983L6.92591 16.2354L6.68304 15.7983ZM9 18.3182H5V19.3182H9V18.3182ZM7.17508 16.1078L8.36304 15.5139L7.91582 14.6194L6.72787 15.2134L7.17508 16.1078ZM11.1919 18.4445L14.101 21.3536L14.8081 20.6464L11.899 17.7374L11.1919 18.4445ZM14.8081 21.3536L21.3536 14.8081L20.6464 14.101L14.101 20.6464L14.8081 21.3536ZM16.4758 15.0885L15.1968 14.5201L14.7907 15.4339L16.0697 16.0024L16.4758 15.0885ZM9.13636 9.36364V7.90909H8.13636V9.36364H9.13636ZM13.9545 7.90909V9.36364H14.9545V7.90909H13.9545ZM13.9545 9.36364C13.9545 10.6941 12.876 11.7727 11.5455 11.7727V12.7727C13.4282 12.7727 14.9545 11.2464 14.9545 9.36364H13.9545ZM11.5455 5.5C12.876 5.5 13.9545 6.57859 13.9545 7.90909H14.9545C14.9545 6.0263 13.4282 4.5 11.5455 4.5V5.5ZM9.13636 7.90909C9.13636 6.57859 10.215 5.5 11.5455 5.5V4.5C9.66267 4.5 8.13636 6.0263 8.13636 7.90909H9.13636ZM8.13636 9.36364C8.13636 11.2464 9.66267 12.7727 11.5455 12.7727V11.7727C10.215 11.7727 9.13636 10.6941 9.13636 9.36364H8.13636ZM15.1968 14.5201C15.1471 14.498 15.1269 14.489 15.109 14.4808L14.6893 15.3884C14.7156 15.4006 14.7438 15.4131 14.7907 15.4339L15.1968 14.5201ZM12.5 11.9091C12.5 11.9604 12.5 11.9913 12.5004 12.0202L13.5003 12.0053C13.5 11.9856 13.5 11.9636 13.5 11.9091H12.5ZM15.109 14.4808C14.1416 14.0334 13.5162 13.0711 13.5003 12.0053L12.5004 12.0202C12.522 13.4704 13.3729 14.7797 14.6893 15.3884L15.109 14.4808ZM8.36304 15.5139C8.49633 15.4472 8.57663 15.4072 8.65074 15.366L8.165 14.4919C8.11448 14.52 8.05737 14.5487 7.91582 14.6194L8.36304 15.5139ZM9.59091 11.9091C9.59091 12.0673 9.5908 12.1313 9.58828 12.189L10.5873 12.2325C10.591 12.1478 10.5909 12.0581 10.5909 11.9091H9.59091ZM8.65074 15.366C9.79696 14.7291 10.5302 13.5426 10.5873 12.2325L9.58828 12.189C9.54631 13.1518 9.00741 14.0238 8.165 14.4919L8.65074 15.366ZM5.5 18.8182C5.5 18.6599 5.50011 18.596 5.50263 18.5383L4.50358 18.4947C4.49989 18.5794 4.5 18.6692 4.5 18.8182H5.5ZM6.72787 15.2134C6.59458 15.2801 6.51428 15.3201 6.44017 15.3613L6.92591 16.2354C6.97643 16.2073 7.03354 16.1786 7.17508 16.1078L6.72787 15.2134ZM5.50263 18.5383C5.5446 17.5755 6.0835 16.7035 6.92591 16.2354L6.44017 15.3613C5.29395 15.9982 4.56068 17.1847 4.50358 18.4947L5.50263 18.5383Z"
    fill="#6D758D" />
</svg>