<svg width="32" height="32" viewBox="0 0 32 32" fill="none" xmlns="http://www.w3.org/2000/svg">
  <path fill-rule="evenodd" clip-rule="evenodd"
    d="M27 16C27 22.0749 22.0753 27 16 27C9.92513 27 5 22.0749 5 16C5 9.92465 9.92513 5 16 5C22.0753 5 27 9.92465 27 16Z"
    fill="#15C39A" />
  <path fill-rule="evenodd" clip-rule="evenodd"
    d="M17.4377 18.375C17.5028 18.7352 17.8414 18.9819 18.2072 18.9819H19.3598L20.028 18.8882C18.9591 20.4564 17.1029 21.1781 15.0737 20.8596C13.4218 20.6004 12.0028 19.4827 11.404 17.9216C10.0448 14.3782 12.6326 10.995 16.0048 10.995C17.7624 10.995 19.3044 12.0505 20.1882 13.293C20.423 13.6312 20.8874 13.7282 21.226 13.4934C21.5474 13.2706 21.6411 12.8473 21.4479 12.5144C20.2255 10.6062 18.0288 9.38516 15.5586 9.55064C12.3423 9.76634 9.73962 12.3982 9.55453 15.6164C9.33979 19.3612 12.3103 22.4187 16.0048 22.4187C17.9456 22.4187 19.6831 21.5736 20.8668 20.2063L20.7267 20.9906V21.6994C20.7267 22.0648 20.973 22.4039 21.3331 22.4689C21.8061 22.5541 22.2174 22.193 22.2174 21.7358V17.4907H18.1704C17.7132 17.4907 17.3521 17.9025 17.4377 18.375Z"
    fill="white" />
</svg>