<svg width="20" height="20" viewBox="0 0 20 20" fill="none" xmlns="http://www.w3.org/2000/svg">
  <path
    d="M10 19.375C15.1777 19.375 19.375 15.1777 19.375 10C19.375 4.82233 15.1777 0.625 10 0.625C4.82233 0.625 0.625 4.82233 0.625 10C0.625 15.1777 4.82233 19.375 10 19.375Z"
    fill="url(#paint0_linear)" />
  <path
    d="M14.0222 14.375H5.97719C5.19469 14.375 5.19469 13.125 5.97719 13.125H14.0222C14.8047 13.125 14.8047 14.375 14.0222 14.375Z"
    fill="#302C3B" />
  <path
    d="M6.87469 10.1562C7.65135 10.1562 8.28094 9.31678 8.28094 8.28125C8.28094 7.24572 7.65135 6.40625 6.87469 6.40625C6.09804 6.40625 5.46844 7.24572 5.46844 8.28125C5.46844 9.31678 6.09804 10.1562 6.87469 10.1562Z"
    fill="#302C3B" />
  <path
    d="M13.1247 10.1562C13.9013 10.1562 14.5309 9.31678 14.5309 8.28125C14.5309 7.24572 13.9013 6.40625 13.1247 6.40625C12.348 6.40625 11.7184 7.24572 11.7184 8.28125C11.7184 9.31678 12.348 10.1562 13.1247 10.1562Z"
    fill="#302C3B" />
  <defs>
    <linearGradient id="paint0_linear" x1="10.0002" y1="19.375" x2="10.0002" y2="0.625156"
      gradientUnits="userSpaceOnUse">
      <stop stop-color="#FFA027" />
      <stop offset="0.2723" stop-color="#FFC151" />
      <stop offset="0.7633" stop-color="#FFC93F" />
      <stop offset="1" stop-color="#FFE261" />
    </linearGradient>
  </defs>
</svg>