<svg width="68" height="69" viewBox="0 0 68 69" fill="none" xmlns="http://www.w3.org/2000/svg">
<path d="M12.9654 22.1068C16.6534 15.7764 23.069 11.1465 30.9189 10.1651C35.3848 9.54378 39.6712 10.2593 43.5231 11.8786C44.2023 12.1712 44.9345 12.5271 45.55 12.8731C46.1655 13.2191 46.8341 13.6284 47.4496 13.9745C49.8906 15.5919 52.056 17.6562 53.7761 20.0944C54.2433 20.7806 54.7635 21.53 55.1671 22.2696C55.5176 22.9458 55.8681 23.6221 56.1655 24.2351C57.0367 26.3075 57.717 28.5401 57.973 30.9131C58.8043 37.3321 56.9514 43.5238 53.3367 48.3908C52.5311 49.4983 51.6194 50.4792 50.6545 51.3968C49.1701 52.8583 47.4735 54.0667 45.7342 55.0952C43.0723 56.5746 40.1555 57.6209 36.9413 58.0542C31.1706 58.8002 25.7063 57.4559 21.1323 54.7174C19.8482 53.9621 18.6913 53.1 17.6086 52.0678" stroke="#8383EF" stroke-width="0.75" stroke-miterlimit="10"/>
<path d="M31.9848 18.5438C32.2818 18.5102 32.5789 18.4765 32.8123 18.4963" stroke="#00B18F" stroke-width="0.196558" stroke-miterlimit="10"/>
<path d="M34.4674 18.4012C36.4619 18.4524 38.3081 18.8438 40.059 19.6386" stroke="#00B18F" stroke-width="0.196558" stroke-miterlimit="10" stroke-dasharray="0.39 0.39"/>
<path d="M40.7915 19.9949C41.0144 20.1313 41.3009 20.2144 41.5238 20.3508C41.9164 20.5604 42.3621 20.8332 42.7548 21.0428C44.3043 22.1145 45.7691 23.473 46.8627 25.0351C47.1707 25.5315 47.5423 25.9744 47.7335 26.4608C47.9884 26.8939 48.1902 27.2637 48.3814 27.7501C48.9657 29.0928 49.3696 30.479 49.5827 32.0255C50.1475 36.1881 48.9617 40.2026 46.619 43.3549C46.089 44.0155 45.4953 44.7294 44.9122 45.3267C43.9473 46.2443 42.8763 47.0354 41.6991 47.6999C40.4584 48.4179 39.0583 48.946 37.6157 49.2941" stroke="#00B18F" stroke-width="0.75" stroke-miterlimit="10" stroke-dasharray="2 2"/>
<path d="M34.8207 41.1804C33.1552 41.3922 31.5425 41.0205 30.2053 40.2019C29.8127 39.9923 29.4836 39.7294 29.1546 39.4664C28.9954 39.2765 28.7194 39.0768 28.5602 38.887C27.7109 37.8746 27.063 36.5853 26.903 35.1022C26.7644 34.0323 26.8593 32.9822 27.177 32.0686C27.1981 31.8353 27.3358 31.6118 27.41 31.4417C27.5478 31.2182 27.6325 30.9315 27.7703 30.708C28.8194 28.857 30.707 27.4884 33.0301 27.156C34.3349 27.0313 35.6186 27.14 36.6904 27.6422C36.8602 27.7153 37.083 27.8517 37.2528 27.9249C37.4226 27.9981 37.6455 28.1345 37.8152 28.2076C38.5369 28.6802 39.1844 29.3229 39.6516 30.009" stroke="#1CA6D0" stroke-width="0.196558" stroke-miterlimit="10"/>
<path d="M8.76445 63.0837H27.413C31.2259 63.0837 34.3455 59.9456 34.3455 56.1101V32.8183C34.3455 28.9829 31.2259 25.8448 27.413 25.8448H8.76445C4.95155 25.8448 1.83191 28.9829 1.83191 32.8183V56.1101C1.90123 59.9456 4.95155 63.0837 8.76445 63.0837Z" fill="#F2F3FA" stroke="#1C1E33" stroke-width="0.75" stroke-miterlimit="10"/>
<path d="M18.1235 54.2969C24.1346 54.2969 29.0076 49.3951 29.0076 43.3484C29.0076 37.3017 24.1346 32.3999 18.1235 32.3999C12.1124 32.3999 7.23938 37.3017 7.23938 43.3484C7.23938 49.3951 12.1124 54.2969 18.1235 54.2969Z" fill="#AFE4F4" stroke="#1C1E33" stroke-width="0.75" stroke-miterlimit="10"/>
<path d="M8.14075 47.672C5.99166 42.7207 7.86344 37.0024 12.2309 34.1432C14.1027 34.1432 16.3905 33.5854 21.7285 40.4892C22.6298 41.8142 24.1549 44.1155 24.1549 44.1155C23.0457 44.7431 21.9365 45.1615 21.9365 45.1615C22.9071 47.2536 24.9868 50.5312 23.2537 53.0416C22.9764 53.1811 22.6991 53.3206 22.4218 53.4601C16.9451 55.7613 10.4978 53.2509 8.14075 47.672Z" fill="white" stroke="#1C1E33" stroke-width="0.75" stroke-miterlimit="10"/>
<path d="M19.302 36.096C17.2222 33.3763 15.6971 33.2368 14.4492 32.9578C14.1719 33.0973 13.8946 33.1671 13.548 33.3065C13.548 33.3065 13.548 33.3065 13.4787 33.3065C13.2014 33.446 12.9241 33.5855 12.6468 33.7249C12.6468 33.7249 12.6468 33.7249 12.5774 33.7249C12.3001 33.8644 12.0922 34.0736 11.8149 34.2131C10.567 35.1197 9.52712 36.2354 8.76454 37.5604C8.76454 37.6301 8.69521 37.6301 8.69521 37.6999C8.55656 37.9091 8.48724 38.0486 8.41791 38.2578C8.34859 38.3972 8.27926 38.467 8.27926 38.6064C8.20994 38.7459 8.14061 38.9551 8.07128 39.1643C8.00196 39.3735 7.93263 39.513 7.86331 39.6525C7.79398 39.792 7.72466 40.0012 7.72466 40.1406C7.65533 40.2801 7.65533 40.4893 7.58601 40.6288C7.51668 40.7683 7.51668 40.9775 7.44736 41.1169C7.37803 41.3261 7.37803 41.4656 7.37803 41.6748C7.30871 41.8143 7.30871 41.9538 7.30871 42.0932C7.30871 42.3024 7.30871 42.5116 7.23938 42.7209C7.23938 42.8603 7.23938 42.9998 7.23938 43.1393C7.23938 43.3485 7.23938 43.6274 7.23938 43.8366C7.23938 43.9761 7.23938 44.0458 7.23938 44.1853C7.23938 44.534 7.30871 44.8827 7.37803 45.2313C7.58601 46.3471 7.93263 47.3932 8.41791 48.3695C8.55656 48.7181 8.76454 48.9971 8.97251 49.276C9.94307 50.8102 11.2603 51.9957 12.7854 52.9023C12.9241 51.2984 12.1615 49.2063 11.4682 47.5326C10.359 44.8129 12.7854 44.4643 14.0333 45.6498C15.2811 46.7655 14.9345 45.3011 14.7958 42.7906C14.7265 39.2341 17.5689 37.2815 19.302 36.096Z" fill="#1C1E33"/>
<path d="M47.6049 40.7395H28.9564C25.1435 40.7395 22.0239 37.6014 22.0239 33.766V10.4742C22.0239 6.63874 25.1435 3.50063 28.9564 3.50063H47.6049C51.4178 3.50063 54.5375 6.63874 54.5375 10.4742V33.766C54.5375 37.6014 51.4178 40.7395 47.6049 40.7395Z" fill="white" stroke="#1C1E33" stroke-width="0.75" stroke-miterlimit="10"/>
<path d="M38.2457 31.9535C32.2346 31.9535 27.3616 27.0517 27.3616 21.005C27.3616 14.9583 32.2346 10.0565 38.2457 10.0565C44.2568 10.0565 49.1298 14.9583 49.1298 21.005C49.1298 27.0517 44.2568 31.9535 38.2457 31.9535Z" fill="#B9CDFF" stroke="#1C1E33" stroke-width="0.75" stroke-miterlimit="10"/>
<path d="M48.9913 22.888C49.9619 17.5183 46.8423 12.4276 41.9201 10.6842C40.1177 11.1026 37.7606 11.1026 34.0864 19.1222C33.5318 20.6564 32.5612 23.1669 32.5612 23.1669C33.8091 23.5156 34.9876 23.655 34.9876 23.655C34.5023 25.8866 33.1851 29.5826 35.4729 31.6049C35.7502 31.6747 36.0275 31.7444 36.3741 31.8141C42.2668 32.8602 47.9515 28.8852 48.9913 22.888Z" fill="white" stroke="#1C1E33" stroke-width="0.75" stroke-miterlimit="10"/>
<path d="M45.0398 24.8403C46.2183 22.4693 43.8613 20.8653 43.168 22.2601C42.4748 23.7245 41.1576 24.0732 41.5042 22.8877C41.9895 20.5167 43.0294 17.518 39.3551 16.7509C35.6809 16.0536 35.4729 12.776 36.3741 10.1958C37.206 10.0563 38.0379 9.98656 38.9392 10.0563C44.9705 10.405 49.5459 15.6352 49.13 21.7022C48.922 25.1192 47.1889 28.0481 44.6238 29.931C43.7226 28.7455 44.2079 26.4442 45.0398 24.8403Z" fill="#1C1E33"/>
</svg>
