<svg width="32" height="32" viewBox="0 0 32 32" fill="none" xmlns="http://www.w3.org/2000/svg">
  <path fill-rule="evenodd" clip-rule="evenodd"
    d="M16 24C20.4183 24 24 20.4183 24 16C24 11.5817 20.4183 8 16 8C11.5817 8 8 11.5817 8 16C8 20.4183 11.5817 24 16 24Z"
    fill="#EA1537" />
  <path
    d="M16.9481 12H15.0518L15.2223 18.1108H16.782L16.9481 12ZM16.0021 20.8381C16.5476 20.8381 17.0206 20.3821 17.0249 19.8153C17.0206 19.2571 16.5476 18.8011 16.0021 18.8011C15.4396 18.8011 14.9751 19.2571 14.9794 19.8153C14.9751 20.3821 15.4396 20.8381 16.0021 20.8381Z"
    fill="white" />
</svg>