<svg width="32" height="32" viewBox="0 0 32 32" fill="none" xmlns="http://www.w3.org/2000/svg">
  <path
    d="M23.9476 15.0858C23.7424 13.3018 22.9429 11.6386 21.6778 10.3641C20.4126 9.08959 18.7555 8.2778 16.973 8.05939C15.1905 7.84098 13.3863 8.22866 11.8509 9.16003C10.3155 10.0914 9.13811 11.5123 8.50823 13.194C7.87836 14.8758 7.83264 16.7205 8.37843 18.4314C8.92422 20.1423 10.0298 21.6197 11.5172 22.626C13.0046 23.6323 14.7873 24.1089 16.5784 23.9791C18.3695 23.8492 20.0649 23.1205 21.3916 21.9102L20.4176 20.8425C19.3305 21.8342 17.9415 22.4312 16.4739 22.5376C15.0064 22.644 13.5457 22.2535 12.327 21.429C11.1083 20.6045 10.2025 19.3939 9.75529 17.9922C9.3081 16.5904 9.34556 15.0789 9.86165 13.7009C10.3777 12.323 11.3424 11.1588 12.6005 10.3957C13.8585 9.63257 15.3367 9.31493 16.7972 9.49388C18.2577 9.67284 19.6155 10.338 20.652 11.3823C21.6886 12.4265 22.3437 13.7892 22.5118 15.251L23.9476 15.0858Z"
    fill="white" />
</svg>