<svg width="48" height="47" fill="none" xmlns="http://www.w3.org/2000/svg">
<g clip-path="url(#clip0)">
<g clip-path="url(#clip1)">
<path d="M22.0378 0.953206L22.0378 0.953222L22.0413 0.956353C24.7119 3.38264 30.6463 7.71726 38.8609 7.39465C39.8588 7.35895 40.706 8.11882 40.7406 9.03187L40.7407 9.03338C41.246 21.3782 38.9863 30.7413 34.7141 36.1458L34.7128 36.1475C31.9049 39.7318 27.1208 43.2992 23.89 45.554L23.8882 45.5553C22.0797 46.8292 19.6329 46.833 17.7724 45.5522L17.7723 45.5521C14.5036 43.303 9.76063 39.6882 6.90427 36.1002C2.67799 30.7399 0.373078 21.3765 0.924247 9.03524L0.924375 9.03187C0.959197 8.11321 1.7661 7.35896 2.80443 7.39466C11.0189 7.71713 16.9531 3.38261 19.6237 0.956353L19.6237 0.956369L19.6271 0.953206C20.3117 0.319512 21.3532 0.319512 22.0378 0.953206Z" fill="white" stroke="#6D758D"/>
</g>
<mask id="path-2-inside-1" fill="white">
<path fill-rule="evenodd" clip-rule="evenodd" d="M20.833 47.0117V-0.0220577C20.2778 -0.0233861 19.7222 0.179392 19.2826 0.586277C16.6538 2.97458 10.8428 7.21044 2.81803 6.895C1.57281 6.84994 0.465948 7.79625 0.419828 9.01293C-0.0874825 21.4051 2.17236 30.9132 6.55368 36.4559C9.41308 40.1059 14.2556 43.7109 17.4839 45.964C18.4819 46.667 19.6551 47.0162 20.833 47.0117Z"/>
</mask>
<path fill-rule="evenodd" clip-rule="evenodd" d="M20.833 47.0117V-0.0220577C20.2778 -0.0233861 19.7222 0.179392 19.2826 0.586277C16.6538 2.97458 10.8428 7.21044 2.81803 6.895C1.57281 6.84994 0.465948 7.79625 0.419828 9.01293C-0.0874825 21.4051 2.17236 30.9132 6.55368 36.4559C9.41308 40.1059 14.2556 43.7109 17.4839 45.964C18.4819 46.667 19.6551 47.0162 20.833 47.0117Z" fill="#B5DDE9"/>
<path d="M20.833 47.0117H21.833V48.0078L20.8369 48.0117L20.833 47.0117ZM20.833 -0.0220577L20.8354 -1.02205L21.833 -1.01967V-0.0220577H20.833ZM19.2826 0.586277L19.9619 1.32017L19.955 1.32643L19.2826 0.586277ZM2.81803 6.895L2.85419 5.89565L2.85731 5.89577L2.81803 6.895ZM0.419828 9.01293L1.41912 9.05081L1.41899 9.05383L0.419828 9.01293ZM6.55368 36.4559L7.33819 35.8358L7.34089 35.8392L6.55368 36.4559ZM17.4839 45.964L18.0563 45.144L18.0598 45.1465L17.4839 45.964ZM19.833 47.0117V-0.0220577H21.833V47.0117H19.833ZM18.6033 -0.147582C19.2331 -0.730555 20.0341 -1.02397 20.8354 -1.02205L20.8306 0.977939C20.5215 0.9772 20.2112 1.08934 19.9619 1.32014L18.6033 -0.147582ZM2.85731 5.89577C10.5015 6.19625 16.0652 2.1583 18.6102 -0.153875L19.955 1.32643C17.2424 3.79086 11.184 8.22462 2.77875 7.89423L2.85731 5.89577ZM-0.579454 8.97505C-0.510334 7.15158 1.11499 5.83272 2.85419 5.89566L2.78186 7.89435C2.03063 7.86716 1.44223 8.44092 1.41911 9.05081L-0.579454 8.97505ZM5.76918 37.076C1.16953 31.2572 -1.09052 21.4588 -0.579334 8.97203L1.41899 9.05383C0.915554 21.3514 3.17519 30.5693 7.33819 35.8358L5.76918 37.076ZM16.9116 46.7841C13.6881 44.5343 8.72892 40.8542 5.76648 37.0726L7.34089 35.8392C10.0972 39.3577 14.8231 42.8875 18.0563 45.144L16.9116 46.7841ZM20.8369 48.0117C19.459 48.017 18.0817 47.6083 16.9081 46.7816L18.0598 45.1465C18.8821 45.7257 19.8512 46.0155 20.8291 46.0117L20.8369 48.0117Z" fill="#6D758D" mask="url(#path-2-inside-1)"/>
<path fill-rule="evenodd" clip-rule="evenodd" d="M43.833 21.7375C43.833 24.9736 41.6944 27.7102 38.7534 28.611V37.3675H40.9203C42.0249 37.3675 42.9203 38.2629 42.9203 39.3675V41.9275C42.9203 43.0321 42.0249 43.9275 40.9203 43.9275H38.7534V44.6719C38.7534 45.836 37.8096 46.7798 36.6455 46.7798C35.4813 46.7798 34.5376 45.836 34.5376 44.6719V28.611C31.5966 27.7102 29.458 24.9736 29.458 21.7375C29.458 17.768 32.676 14.55 36.6455 14.55C40.615 14.55 43.833 17.768 43.833 21.7375ZM36.6455 24.7581C38.3137 24.7581 39.6661 23.4057 39.6661 21.7375C39.6661 20.0693 38.3137 18.7169 36.6455 18.7169C34.9773 18.7169 33.6249 20.0693 33.6249 21.7375C33.6249 23.4057 34.9773 24.7581 36.6455 24.7581Z" fill="url(#paint0_linear)"/>
<path d="M38.7534 28.611L38.6069 28.1329L38.2534 28.2412V28.611H38.7534ZM38.7534 37.3675H38.2534V37.8675H38.7534V37.3675ZM38.7534 43.9275V43.4275H38.2534V43.9275H38.7534ZM34.5376 28.611H35.0376V28.2412L34.684 28.1329L34.5376 28.611ZM38.8998 29.0891C42.045 28.1257 44.333 25.1995 44.333 21.7375H43.333C43.333 24.7477 41.3438 27.2947 38.6069 28.1329L38.8998 29.0891ZM39.2534 37.3675V28.611H38.2534V37.3675H39.2534ZM40.9203 36.8675H38.7534V37.8675H40.9203V36.8675ZM43.4203 39.3675C43.4203 37.9868 42.301 36.8675 40.9203 36.8675V37.8675C41.7487 37.8675 42.4203 38.5391 42.4203 39.3675H43.4203ZM43.4203 41.9275V39.3675H42.4203V41.9275H43.4203ZM40.9203 44.4275C42.301 44.4275 43.4203 43.3082 43.4203 41.9275H42.4203C42.4203 42.756 41.7487 43.4275 40.9203 43.4275V44.4275ZM38.7534 44.4275H40.9203V43.4275H38.7534V44.4275ZM39.2534 44.6719V43.9275H38.2534V44.6719H39.2534ZM36.6455 47.2798C38.0858 47.2798 39.2534 46.1122 39.2534 44.6719H38.2534C38.2534 45.5599 37.5335 46.2798 36.6455 46.2798V47.2798ZM34.0376 44.6719C34.0376 46.1122 35.2052 47.2798 36.6455 47.2798V46.2798C35.7575 46.2798 35.0376 45.5599 35.0376 44.6719H34.0376ZM34.0376 28.611V44.6719H35.0376V28.611H34.0376ZM28.958 21.7375C28.958 25.1995 31.246 28.1257 34.3912 29.0891L34.684 28.1329C31.9472 27.2946 29.958 24.7477 29.958 21.7375H28.958ZM36.6455 14.05C32.3998 14.05 28.958 17.4919 28.958 21.7375H29.958C29.958 18.0441 32.9521 15.05 36.6455 15.05V14.05ZM44.333 21.7375C44.333 17.4919 40.8912 14.05 36.6455 14.05V15.05C40.3389 15.05 43.333 18.0441 43.333 21.7375H44.333ZM39.1661 21.7375C39.1661 23.1296 38.0376 24.2581 36.6455 24.2581V25.2581C38.5898 25.2581 40.1661 23.6819 40.1661 21.7375H39.1661ZM36.6455 19.2169C38.0376 19.2169 39.1661 20.3454 39.1661 21.7375H40.1661C40.1661 19.7931 38.5898 18.2169 36.6455 18.2169V19.2169ZM34.1249 21.7375C34.1249 20.3454 35.2534 19.2169 36.6455 19.2169V18.2169C34.7011 18.2169 33.1249 19.7931 33.1249 21.7375H34.1249ZM36.6455 24.2581C35.2534 24.2581 34.1249 23.1296 34.1249 21.7375H33.1249C33.1249 23.6819 34.7011 25.2581 36.6455 25.2581V24.2581Z" fill="#6D758D"/>
</g>
<defs>
<linearGradient id="paint0_linear" x1="43.833" y1="14.55" x2="25.3492" y2="21.9712" gradientUnits="userSpaceOnUse">
<stop offset="0.0350108" stop-color="#B5DDE9"/>
<stop offset="1" stop-color="#D1CEF4"/>
</linearGradient>
<clipPath id="clip0">
<rect width="47" height="47" fill="white" transform="translate(0.333008)"/>
</clipPath>
<clipPath id="clip1">
<rect width="41" height="47" fill="white" transform="translate(0.333008)"/>
</clipPath>
</defs>
</svg>
