<svg id="Layer_1" enable-background="new 0 0 512 512" height="512" viewBox="0 0 512 512" width="512" xmlns="http://www.w3.org/2000/svg"><g><g><path d="m32 328c-4.418 0-8-3.582-8-8v-40c0-4.418 3.582-8 8-8s8 3.582 8 8v40c0 4.418-3.582 8-8 8z" fill="#555a6e"/></g><g><path d="m304 90.826v-4.907c0-12.106-9.813-21.919-21.919-21.919h-161.356c-14.896 0-28.253 9.174-33.6 23.077l-70.226 182.584c-.594 1.546-.899 3.189-.899 4.845 0 7.452 6.042 13.494 13.494 13.494h43.648l-52.873 148.048c-2.081 5.825 2.237 11.952 8.422 11.952h48c2.135 0 4.2-.764 5.821-2.153l213.834-183.286c4.858-4.164 7.654-10.243 7.654-16.642 0-12.105-9.813-21.919-21.919-21.919h-42.081l61.686-123.372c1.522-3.044 2.314-6.399 2.314-9.802z" fill="#faa037"/></g><g><path d="m234.081 64h-113.356c-14.896 0-28.253 9.174-33.6 23.077l-70.226 182.584c-.595 1.546-.899 3.188-.899 4.844 0 7.453 6.042 13.495 13.494 13.495h43.649l-52.874 148.048c-2.081 5.825 2.237 11.952 8.422 11.952 2.135 0 4.2-.764 5.821-2.153l213.834-183.286c4.858-4.164 7.654-10.243 7.654-16.642 0-12.105-9.813-21.919-21.919-21.919h-42.081l61.686-123.372c1.522-3.044 2.314-6.4 2.314-9.802v-4.907c0-12.106-9.813-21.919-21.919-21.919z" fill="#ffd241"/></g><path d="m425.822 145.689c-7.903-3.952-17.515-.749-21.466 7.155l-2.013 4.025c-.937-4.673-3.927-8.885-8.521-11.181-7.903-3.952-17.515-.749-21.466 7.155l-4.457 8.913c.063-.576.101-1.161.101-1.756 0-8.837-7.164-16-16-16h-23.833c-11.137 0-21.149 6.188-26.13 16.149l-3.259 6.518c-3.643 7.286-4.072 15.832-1.177 23.446 2.536 6.669 7.452 12.179 13.715 15.477l-1.205 2.41h-22.111c-4.247 0-8.096 1.666-10.96 4.365l16.816-33.632c3.747-7.494 3.354-16.224-1.051-23.351-4.406-7.127-12.037-11.382-20.416-11.382h-9.167c-12.2 0-23.167 6.778-28.622 17.689l-26.676 53.352c-2.877-4.248-7.741-7.041-13.258-7.041h-6.111l20.422-40.845c3.952-7.903.748-17.515-7.156-21.466-7.904-3.952-17.514-.749-21.466 7.155l-4.457 8.913c.064-.577.102-1.162.102-1.757 0-8.837-7.164-16-16-16h-32c-6.061 0-11.601 3.424-14.311 8.845l-32 64c-3.952 7.903-.748 17.515 7.156 21.466 2.297 1.148 4.738 1.693 7.143 1.693 5.869 0 11.52-3.242 14.323-8.849l11.578-23.155h22.111c4.247 0 8.096-1.666 10.96-4.365l-6.605 13.21c-2.479 4.96-2.215 10.85.701 15.567 2.915 4.717 8.065 7.588 13.61 7.588h32c5.571 0 10.473-2.851 13.338-7.17 1.495 2.262 3.574 4.181 6.174 5.48 7.903 3.952 17.515.747 21.466-7.155l2.001-4.004c.941 4.666 3.945 8.866 8.532 11.159 2.297 1.148 4.738 1.693 7.143 1.693 5.869-.001 11.521-3.242 14.324-8.849l4.457-8.913c-.063.579-.101 1.164-.101 1.759 0 8.837 7.164 16 16 16h23.833c11.137 0 21.149-6.188 26.13-16.149l.818-1.636c-.727 6.478 2.56 13.012 8.73 16.096 2.297 1.148 4.738 1.693 7.143 1.693 5.869 0 11.52-3.242 14.323-8.849l2.013-4.025c.937 4.673 3.927 8.885 8.521 11.181 2.297 1.148 4.738 1.693 7.143 1.693 5.869 0 11.52-3.242 14.323-8.849l32-64c3.952-7.903.749-17.514-7.155-21.466zm-265.923 48.069c.063-.578.101-1.163.101-1.758 0-8.837-7.164-16-16-16h16c4.247 0 8.096-1.666 10.96-4.365zm183.802 16.396c1.104-5.39.683-11.048-1.302-16.268-2.536-6.669-7.452-12.179-13.715-15.477l1.205-2.41h22.111c4.247 0 8.096-1.666 10.96-4.365z" fill="#e64178"/><g fill="#ff6e91"><path d="m144 184h-19.056l8-16h27.056c4.418 0 8-3.582 8-8s-3.582-8-8-8h-32c-3.03 0-5.8 1.712-7.155 4.422l-32 64c-1.976 3.952-.374 8.758 3.578 10.733 1.148.574 2.369.847 3.571.847 2.935 0 5.76-1.621 7.162-4.424l13.788-27.578h27.056c4.418 0 8-3.582 8-8s-3.582-8-8-8z"/><path d="m194.667 216h-19.056l26.211-52.422c1.976-3.952.374-8.758-3.578-10.733-3.952-1.977-8.757-.374-10.733 3.577l-32 64c-1.24 2.48-1.107 5.426.35 7.784s4.033 3.794 6.805 3.794h32c4.418 0 8-3.582 8-8s-3.581-8-7.999-8z"/><path d="m286 159.588c-2.937-4.751-8.025-7.588-13.61-7.588h-9.167c-9.15 0-17.375 5.084-21.466 13.267l-27.578 55.155c-1.976 3.952-.374 8.758 3.578 10.733 3.953 1.976 8.758.374 10.733-3.577l13.788-27.578h14.111l-10.211 20.422c-1.976 3.952-.374 8.758 3.578 10.733 1.148.574 2.369.847 3.571.847 2.935 0 5.76-1.621 7.162-4.424l26.211-52.422c2.498-4.997 2.236-10.816-.7-15.568zm-35.722 24.412 5.789-11.578c1.363-2.728 4.105-4.422 7.155-4.422h9.167l-8 16z"/><path d="m322.971 184.572c-1.848-.739-2.633-2.189-2.937-2.988-.304-.798-.68-2.403.21-4.184l3.259-6.518c.889-1.778 2.676-2.883 4.664-2.883h23.833c4.418 0 8-3.582 8-8s-3.582-8-8-8h-23.833c-8.087 0-15.357 4.493-18.974 11.727l-3.259 6.518c-2.646 5.291-2.957 11.497-.855 17.026 2.103 5.529 6.458 9.96 11.95 12.157 1.848.739 2.633 2.189 2.937 2.988.304.798.68 2.403-.21 4.184l-3.259 6.518c-.889 1.778-2.676 2.883-4.664 2.883h-23.833c-4.418 0-8 3.582-8 8s3.582 8 8 8h23.833c8.087 0 15.357-4.493 18.974-11.727l3.259-6.518c2.646-5.291 2.957-11.497.855-17.026s-6.458-9.959-11.95-12.157z"/><path d="m422.244 152.845c-3.953-1.977-8.758-.374-10.733 3.577l-13.789 27.578h-14.111l10.211-20.422c1.976-3.952.374-8.758-3.578-10.733-3.952-1.977-8.757-.374-10.733 3.577l-32 64c-1.976 3.952-.374 8.758 3.578 10.733 1.148.574 2.369.847 3.571.847 2.935 0 5.76-1.621 7.162-4.424l13.789-27.578h14.111l-10.211 20.422c-1.976 3.952-.374 8.758 3.578 10.733 1.148.574 2.369.847 3.571.847 2.935 0 5.76-1.621 7.162-4.424l32-64c1.976-3.952.374-8.758-3.578-10.733z"/></g><g><g><path d="m195.373 448h284.627c8.837 0 16-7.163 16-16v-160c0-8.837-7.163-16-16-16h-284.627c-7.198 0-14.017 3.231-18.575 8.802l-59.732 73.006c-3.276 4.004-5.066 9.019-5.066 14.192 0 5.173 1.79 10.188 5.066 14.192l59.732 73.006c4.558 5.571 11.377 8.802 18.575 8.802z" fill="#289bc3"/></g><g><path d="m195.373 448h260.627c8.837 0 16-7.163 16-16v-160c0-8.837-7.163-16-16-16h-260.627c-7.198 0-14.017 3.231-18.575 8.802l-59.732 73.006c-3.276 4.004-5.066 9.019-5.066 14.192 0 5.173 1.79 10.188 5.066 14.192l59.732 73.006c4.558 5.571 11.377 8.802 18.575 8.802z" fill="#00d2d2"/></g><g><circle cx="152" cy="352" fill="#289bc3" r="24"/></g><g fill="#d7e6f0"><path d="m220 288c-15.439 0-28 12.561-28 28v14.459c0 11.516 6.909 21.72 17.602 25.998l14.854 5.941c4.583 1.833 7.544 6.207 7.544 11.143v14.459c0 6.617-5.383 12-12 12s-12-5.383-12-12v-4c0-4.418-3.582-8-8-8s-8 3.582-8 8v4c0 15.439 12.561 28 28 28s28-12.561 28-28v-14.459c0-11.516-6.909-21.72-17.602-25.998l-14.854-5.941c-4.583-1.833-7.544-6.207-7.544-11.143v-14.459c0-6.617 5.383-12 12-12s12 5.383 12 12v4c0 4.418 3.582 8 8 8s8-3.582 8-8v-4c0-15.439-12.561-28-28-28z"/><path d="m292 288c-15.439 0-28 12.561-28 28v92c0 4.418 3.582 8 8 8s8-3.582 8-8v-48h24v48c0 4.418 3.582 8 8 8s8-3.582 8-8v-92c0-15.439-12.561-28-28-28zm-12 56v-28c0-6.617 5.383-12 12-12s12 5.383 12 12v28z"/><path d="m384 400h-24c-4.411 0-8-3.589-8-8v-96c0-4.418-3.582-8-8-8s-8 3.582-8 8v96c0 13.233 10.767 24 24 24h24c4.418 0 8-3.582 8-8s-3.582-8-8-8z"/><path d="m448 400h-24c-4.411 0-8-3.589-8-8v-32h16c4.418 0 8-3.582 8-8s-3.582-8-8-8h-16v-32c0-4.411 3.589-8 8-8h24c4.418 0 8-3.582 8-8s-3.582-8-8-8h-24c-13.233 0-24 10.767-24 24v80c0 13.233 10.767 24 24 24h24c4.418 0 8-3.582 8-8s-3.582-8-8-8z"/></g></g><g><path d="m152 360h-88c-22.056 0-40-17.944-40-40 0-4.418 3.582-8 8-8s8 3.582 8 8c0 13.233 10.766 24 24 24h88c4.418 0 8 3.582 8 8s-3.582 8-8 8z" fill="#555a6e"/></g><g><g><path d="m416 88c-4.418 0-8-3.582-8-8v-8c0-4.418 3.582-8 8-8s8 3.582 8 8v8c0 4.418-3.582 8-8 8z" fill="#faa037"/></g><g><path d="m416 128c-4.418 0-8-3.582-8-8v-8c0-4.418 3.582-8 8-8s8 3.582 8 8v8c0 4.418-3.582 8-8 8z" fill="#faa037"/></g><g><path d="m400 104h-8c-4.418 0-8-3.582-8-8s3.582-8 8-8h8c4.418 0 8 3.582 8 8s-3.582 8-8 8z" fill="#faa037"/></g><g><path d="m440 104h-8c-4.418 0-8-3.582-8-8s3.582-8 8-8h8c4.418 0 8 3.582 8 8s-3.582 8-8 8z" fill="#faa037"/></g></g><g><g><path d="m448 240c-4.418 0-8-3.582-8-8v-8c0-4.418 3.582-8 8-8s8 3.582 8 8v8c0 4.418-3.582 8-8 8z" fill="#faa037"/></g><g><path d="m448 280c-4.418 0-8-3.582-8-8v-8c0-4.418 3.582-8 8-8s8 3.582 8 8v8c0 4.418-3.582 8-8 8z" fill="#faa037"/></g><g><path d="m432 256h-8c-4.418 0-8-3.582-8-8s3.582-8 8-8h8c4.418 0 8 3.582 8 8s-3.582 8-8 8z" fill="#faa037"/></g><g><path d="m472 256h-8c-4.418 0-8-3.582-8-8s3.582-8 8-8h8c4.418 0 8 3.582 8 8s-3.582 8-8 8z" fill="#faa037"/></g></g><g><g><path d="m64 112c-4.418 0-8-3.582-8-8v-8c0-4.418 3.582-8 8-8s8 3.582 8 8v8c0 4.418-3.582 8-8 8z" fill="#faa037"/></g><g><path d="m64 152c-4.418 0-8-3.582-8-8v-8c0-4.418 3.582-8 8-8s8 3.582 8 8v8c0 4.418-3.582 8-8 8z" fill="#faa037"/></g><g><path d="m48 128h-8c-4.418 0-8-3.582-8-8s3.582-8 8-8h8c4.418 0 8 3.582 8 8s-3.582 8-8 8z" fill="#faa037"/></g><g><path d="m88 128h-8c-4.418 0-8-3.582-8-8s3.582-8 8-8h8c4.418 0 8 3.582 8 8s-3.582 8-8 8z" fill="#faa037"/></g></g></g></svg>